<?xml version="1.0" standalone="no"?>
<!DOCTYPE svg PUBLIC "-//W3C//DTD SVG 20010904//EN"
 "http://www.w3.org/TR/2001/REC-SVG-20010904/DTD/svg10.dtd">
<svg version="1.0" xmlns="http://www.w3.org/2000/svg"
 width="512.000000pt" height="512.000000pt" viewBox="0 0 512.000000 512.000000"
 preserveAspectRatio="xMidYMid meet">

<g transform="translate(0.000000,512.000000) scale(0.100000,-0.100000)"
fill="#FFF" stroke="none">
<path d="M2489 5105 c-62 -23 -2417 -1599 -2445 -1636 -13 -18 -29 -49 -34
-69 -14 -50 -13 -1633 1 -1683 5 -21 24 -54 42 -74 44 -50 2388 -1612 2448
-1631 101 -32 27 -76 1338 797 685 457 1210 813 1228 834 18 20 37 53 42 74
14 50 15 1634 1 1682 -5 19 -20 49 -32 67 -27 40 -2402 1628 -2458 1644 -46
13 -87 12 -131 -5z m-149 -1128 l0 -514 -467 -313 c-257 -173 -474 -314 -483
-314 -16 -1 -770 493 -769 504 0 4 1707 1147 1717 1149 1 1 2 -230 2 -512z
m2159 -637 c0 -5 -743 -502 -760 -508 -4 -2 -222 140 -484 314 l-475 318 0
513 0 513 860 -572 c473 -315 859 -575 859 -578z m-1554 -517 c212 -141 385
-259 385 -263 0 -4 -173 -122 -385 -263 l-385 -257 -385 257 c-212 141 -384
261 -383 265 2 6 754 514 766 517 1 1 175 -114 387 -256z m-1956 -263 c0 -3
-123 -87 -274 -188 l-275 -182 0 370 0 370 275 -182 c151 -101 274 -185 274
-188z m3691 0 l0 -369 -267 180 c-148 99 -268 184 -268 190 0 8 518 366 533
369 1 0 2 -166 2 -370z m-2806 -589 l466 -313 0 -514 0 -514 -860 572 c-473
315 -859 575 -859 578 0 12 756 509 770 506 9 -2 226 -144 483 -315z m2250 64
c206 -137 375 -252 375 -255 0 -3 -386 -263 -859 -578 l-860 -572 0 513 0 513
473 317 c259 174 477 316 483 315 7 -2 181 -115 388 -253z"/>
</g>
</svg>
