<?xml version="1.0" standalone="no"?>
<!DOCTYPE svg PUBLIC "-//W3C//DTD SVG 20010904//EN"
 "http://www.w3.org/TR/2001/REC-SVG-20010904/DTD/svg10.dtd">
<svg version="1.0" xmlns="http://www.w3.org/2000/svg"
 width="920.000000pt" height="920.000000pt" viewBox="0 0 920.000000 920.000000"
 preserveAspectRatio="xMidYMid meet">

<g transform="translate(0.000000,920.000000) scale(0.100000,-0.100000)"
fill="#FFF" stroke="none">
<path d="M2069 8369 c-224 -33 -434 -121 -620 -261 -41 -31 -119 -103 -174
-160 -204 -209 -326 -447 -369 -714 -14 -91 -16 -347 -16 -2521 0 -2377 0
-2421 20 -2531 22 -123 53 -216 111 -337 161 -338 513 -638 863 -735 184 -52
72 -50 2656 -50 2619 0 2485 -3 2677 55 489 149 894 617 963 1117 17 120 17
4857 1 4976 -42 298 -197 582 -441 808 -215 199 -459 316 -733 353 -95 13
-4851 13 -4938 0z m731 -1249 c163 -55 297 -193 356 -366 22 -66 27 -96 26
-179 -2 -309 -202 -521 -521 -554 -335 -35 -625 153 -686 444 -28 133 -12 284
41 392 54 111 177 215 306 260 127 44 351 46 478 3z m3155 -1490 c207 -23 381
-81 531 -179 315 -203 494 -528 549 -997 12 -107 15 -304 15 -1159 l0 -1030
-535 3 -534 2 -4 993 c-3 860 -6 1001 -19 1063 -71 313 -235 458 -518 459
-191 0 -285 -40 -425 -180 -116 -115 -158 -192 -180 -326 -13 -80 -15 -242
-15 -1061 l0 -968 -547 0 -546 0 7 323 c9 421 9 2880 0 2935 l-7 42 547 0 546
0 1 -222 c0 -176 3 -219 12 -205 78 121 212 259 322 332 221 147 498 208 800
175z m-2855 -1712 l0 -1653 -545 3 -545 2 0 1650 0 1650 545 0 545 0 0 -1652z"/>
</g>
</svg>
