<svg version="1.1" id="Layer_1" xmlns="http://www.w3.org/2000/svg" xmlns:xlink="http://www.w3.org/1999/xlink" x="0px" y="0px"
	 width="100%" viewBox="0 0 512 512" enable-background="new 0 0 512 512" xml:space="preserve">
<path fill="#FF4B00" opacity="1.000000" stroke="none" 
	d="
M257.000000,1.000000 
	C332.354218,1.000000 407.708466,1.000000 483.517792,1.441356 
	C483.645447,4.640959 483.217529,7.391587 483.007599,10.158750 
	C481.974121,23.780388 480.982086,37.405239 480.006989,51.031216 
	C478.984436,65.320473 478.001099,79.612534 476.994324,93.902931 
	C475.999237,108.027664 474.996826,122.151886 473.996674,136.276276 
	C472.996490,150.400787 471.999176,164.525497 470.993347,178.649612 
	C469.999329,192.607529 468.920715,206.559921 468.019928,220.523804 
	C467.233917,232.708847 466.655518,244.907181 465.961670,257.098297 
	C465.652557,262.529816 465.368256,267.964783 464.928680,273.386505 
	C463.653534,289.113708 462.253662,304.830841 461.001862,320.559814 
	C459.931244,334.011810 458.971344,347.472839 458.009644,360.933228 
	C456.648407,379.985718 455.290802,399.038605 454.009857,418.096588 
	C453.303925,428.600006 452.757904,439.114166 452.147858,449.486206 
	C433.214264,455.732849 414.781433,461.850830 396.324646,467.895477 
	C363.363068,478.690369 330.363525,489.369781 297.429291,500.247192 
	C285.214630,504.281372 273.139038,508.736725 261.000000,513.000000 
	C259.933319,513.000000 258.866669,513.000000 257.407104,512.531372 
	C257.016174,486.373596 257.018097,460.684418 257.369690,434.885681 
	C296.860840,421.673035 335.977600,408.494934 375.179565,395.575470 
	C379.387726,394.188660 380.827911,392.200256 381.004395,387.900848 
	C381.502686,375.763947 382.420349,363.642822 383.266724,351.522034 
	C384.808594,329.441528 386.400269,307.364471 388.005524,285.288483 
	C389.188293,269.023041 390.459595,252.763977 391.624420,236.497269 
	C392.200989,228.445068 392.626282,220.382065 393.139954,211.999390 
	C377.570831,211.999390 362.761444,212.018875 347.952118,211.995331 
	C317.624634,211.947113 287.297119,211.875778 256.980835,211.357285 
	C256.984619,186.328873 256.977173,161.757156 257.434875,137.109802 
	C304.799622,137.034164 351.699158,137.034164 398.679230,137.034164 
	C400.101562,116.656754 401.472473,97.015923 402.869568,77.000145 
	C400.498444,77.000145 398.690216,77.000153 396.882019,77.000153 
	C368.397705,77.000145 339.913391,77.022247 311.429108,76.992134 
	C293.276642,76.972939 275.124237,76.876335 256.983459,76.357536 
	C256.996735,50.933758 256.998383,25.966879 257.000000,1.000000 
z"/>
<path fill="#FF7816" opacity="1.000000" stroke="none" 
	d="
M257.020020,434.995209 
	C257.018097,460.684418 257.016174,486.373596 257.007141,512.531372 
	C256.250000,513.000000 255.500000,513.000000 254.227142,512.650269 
	C245.205368,509.557678 236.697388,506.842499 228.209106,504.067108 
	C193.296677,492.652069 158.380936,481.246979 123.485107,469.781342 
	C103.003494,463.051727 82.557083,456.214905 61.983471,449.389374 
	C61.983471,446.043793 62.196712,442.867828 61.947506,439.728607 
	C60.698269,423.992157 59.289371,408.268433 58.014950,392.533936 
	C57.270447,383.341980 56.662487,374.138885 56.011505,364.939484 
	C54.999802,350.642548 54.015747,336.343689 52.997704,322.047211 
	C52.015099,308.248444 50.926628,294.456757 50.029346,280.652557 
	C49.247761,268.628326 48.681297,256.590240 47.992882,244.559799 
	C47.691444,239.291931 47.394455,234.022141 46.971710,228.763168 
	C45.680168,212.696411 44.201714,196.643616 43.041656,180.567657 
	C42.162510,168.384537 41.834961,156.161453 40.945221,143.979294 
	C39.795380,128.235809 38.270710,112.520081 37.018669,96.783554 
	C35.934696,83.159409 34.880299,69.530655 34.039444,55.889973 
	C32.912014,37.600357 32.002865,19.297291 31.000000,1.000000 
	C106.020897,1.000000 181.041794,1.000000 256.531342,1.000000 
	C256.998383,25.966879 256.996735,50.933758 257.028809,76.446350 
	C257.062469,76.992065 257.046814,77.190872 256.581360,77.112213 
	C208.169647,77.033554 160.223419,77.033554 111.694519,77.033554 
	C116.318527,142.318848 120.901764,207.028488 125.503571,272.000244 
	C139.917511,272.000244 153.738998,272.019623 167.560440,271.996216 
	C197.389206,271.945709 227.217941,271.873199 257.055847,271.909302 
	C257.064972,272.008881 256.971741,272.185852 256.982178,272.642700 
	C256.988495,305.688416 256.984344,338.277252 257.028320,370.969299 
	C257.076477,371.072449 257.066101,371.299927 256.691681,371.189941 
	C235.969635,364.346283 215.645645,357.539429 195.250122,350.954071 
	C192.015854,349.909790 190.776199,348.420532 190.827011,345.004364 
	C190.885223,341.091949 190.215576,337.168762 189.872162,333.360901 
	C169.638718,333.360901 149.925964,333.360901 130.015686,333.360901 
	C131.363403,352.817932 132.603088,371.908325 134.173340,390.971466 
	C134.290573,392.394745 136.549698,394.280457 138.192276,394.841949 
	C158.318787,401.721893 178.507095,408.421814 198.697723,415.113098 
	C218.090057,421.539734 237.503784,427.901825 256.930176,434.468933 
	C256.952271,434.645599 257.020020,434.995209 257.020020,434.995209 
z"/>
<path fill="#FFFFFF" opacity="1.000000" stroke="none" 
	d="
M30.531342,1.000000 
	C32.002865,19.297291 32.912014,37.600357 34.039444,55.889973 
	C34.880299,69.530655 35.934696,83.159409 37.018669,96.783554 
	C38.270710,112.520081 39.795380,128.235809 40.945221,143.979294 
	C41.834961,156.161453 42.162510,168.384537 43.041656,180.567657 
	C44.201714,196.643616 45.680168,212.696411 46.971710,228.763168 
	C47.394455,234.022141 47.691444,239.291931 47.992882,244.559799 
	C48.681297,256.590240 49.247761,268.628326 50.029346,280.652557 
	C50.926628,294.456757 52.015099,308.248444 52.997704,322.047211 
	C54.015747,336.343689 54.999802,350.642548 56.011505,364.939484 
	C56.662487,374.138885 57.270447,383.341980 58.014950,392.533936 
	C59.289371,408.268433 60.698269,423.992157 61.947506,439.728607 
	C62.196712,442.867828 61.983471,446.043793 61.983471,449.389374 
	C82.557083,456.214905 103.003494,463.051727 123.485107,469.781342 
	C158.380936,481.246979 193.296677,492.652069 228.209106,504.067108 
	C236.697388,506.842499 245.205368,509.557678 253.852142,512.650269 
	C169.713089,513.000000 85.426186,513.000000 1.069639,513.000000 
	C1.069639,342.333344 1.069639,171.666672 1.074112,1.000005 
	C10.739952,1.000000 20.401318,1.000000 30.531342,1.000000 
z"/>
<path fill="#FFFFFF" opacity="1.000000" stroke="none" 
	d="
M261.468658,513.000000 
	C273.139038,508.736725 285.214630,504.281372 297.429291,500.247192 
	C330.363525,489.369781 363.363068,478.690369 396.324646,467.895477 
	C414.781433,461.850830 433.214264,455.732849 452.147858,449.486206 
	C452.757904,439.114166 453.303925,428.600006 454.009857,418.096588 
	C455.290802,399.038605 456.648407,379.985718 458.009644,360.933228 
	C458.971344,347.472839 459.931244,334.011810 461.001862,320.559814 
	C462.253662,304.830841 463.653534,289.113708 464.928680,273.386505 
	C465.368256,267.964783 465.652557,262.529816 465.961670,257.098297 
	C466.655518,244.907181 467.233917,232.708847 468.019928,220.523804 
	C468.920715,206.559921 469.999329,192.607529 470.993347,178.649612 
	C471.999176,164.525497 472.996490,150.400787 473.996674,136.276276 
	C474.996826,122.151886 475.999237,108.027664 476.994324,93.902931 
	C478.001099,79.612534 478.984436,65.320473 480.006989,51.031216 
	C480.982086,37.405239 481.974121,23.780388 483.007599,10.158750 
	C483.217529,7.391587 483.645447,4.640959 483.986450,1.441356 
	C493.661346,1.000000 503.322662,1.000000 512.988037,1.000000 
	C512.992004,171.567154 512.992004,342.134308 512.992004,513.000000 
	C429.312683,513.000000 345.625000,513.000000 261.468658,513.000000 
z"/>
<path fill="#E2E2E6" opacity="1.000000" stroke="none" 
	d="
M257.369690,434.885681 
	C257.020020,434.995209 256.952271,434.645599 256.950897,433.981140 
	C256.988403,412.644440 257.027252,391.972168 257.066101,371.299927 
	C257.066101,371.299927 257.076477,371.072449 257.406311,371.022766 
	C278.134735,364.248413 298.520813,357.485229 318.946320,350.843414 
	C321.788452,349.919281 323.049194,348.686462 323.251343,345.395081 
	C324.269318,328.819763 325.711823,312.271118 326.900757,295.705566 
	C327.455475,287.976135 327.773773,280.229736 328.216003,272.185852 
	C304.109894,272.185852 280.540833,272.185852 256.971741,272.185852 
	C256.971741,272.185852 257.064972,272.008881 257.046112,271.452911 
	C257.033661,251.328125 257.040039,231.759323 257.053741,212.090973 
	C257.061035,211.991425 256.969635,211.813980 256.969635,211.813980 
	C287.297119,211.875778 317.624634,211.947113 347.952118,211.995331 
	C362.761444,212.018875 377.570831,211.999390 393.139954,211.999390 
	C392.626282,220.382065 392.200989,228.445068 391.624420,236.497269 
	C390.459595,252.763977 389.188293,269.023041 388.005524,285.288483 
	C386.400269,307.364471 384.808594,329.441528 383.266724,351.522034 
	C382.420349,363.642822 381.502686,375.763947 381.004395,387.900848 
	C380.827911,392.200256 379.387726,394.188660 375.179565,395.575470 
	C335.977600,408.494934 296.860840,421.673035 257.369690,434.885681 
z"/>
<path fill="#E2E2E7" opacity="1.000000" stroke="none" 
	d="
M257.017151,76.903252 
	C275.124237,76.876335 293.276642,76.972939 311.429108,76.992134 
	C339.913391,77.022247 368.397705,77.000145 396.882019,77.000153 
	C398.690216,77.000153 400.498444,77.000145 402.869568,77.000145 
	C401.472473,97.015923 400.101562,116.656754 398.679230,137.034164 
	C351.699158,137.034164 304.799622,137.034164 257.481201,137.021210 
	C257.062378,137.008240 257.046631,136.808914 257.036804,136.352463 
	C257.033569,116.327629 257.040192,96.759254 257.046814,77.190872 
	C257.046814,77.190872 257.062469,76.992065 257.017151,76.903252 
z"/>
<path fill="#FF7816" opacity="1.000000" stroke="none" 
	d="
M257.016052,137.096832 
	C256.977173,161.757156 256.984619,186.328873 256.980835,211.357285 
	C256.969635,211.813980 257.061035,211.991425 256.588257,212.012619 
	C231.385590,212.033813 206.655670,212.033813 181.589417,212.033813 
	C179.775558,186.727173 178.009933,162.093674 176.211334,137.000000 
	C178.708496,137.000000 180.676743,137.004318 182.644958,136.999344 
	C207.445511,136.936661 232.246078,136.872620 257.046631,136.808914 
	C257.046631,136.808914 257.062378,137.008240 257.016052,137.096832 
z"/>
<path fill="#ECECF1" opacity="1.000000" stroke="none" 
	d="
M257.036804,136.352463 
	C232.246078,136.872620 207.445511,136.936661 182.644958,136.999344 
	C180.676743,137.004318 178.708496,137.000000 176.211334,137.000000 
	C178.009933,162.093674 179.775558,186.727173 181.589417,212.033813 
	C206.655670,212.033813 231.385590,212.033813 256.580994,212.112152 
	C257.040039,231.759323 257.033661,251.328125 257.036987,271.353333 
	C227.217941,271.873199 197.389206,271.945709 167.560440,271.996216 
	C153.738998,272.019623 139.917511,272.000244 125.503571,272.000244 
	C120.901764,207.028488 116.318527,142.318848 111.694519,77.033554 
	C160.223419,77.033554 208.169647,77.033554 256.581360,77.112213 
	C257.040192,96.759254 257.033569,116.327629 257.036804,136.352463 
z"/>
<path fill="#ECECF0" opacity="1.000000" stroke="none" 
	d="
M256.691681,371.189941 
	C257.027252,391.972168 256.988403,412.644440 256.928833,433.804474 
	C237.503784,427.901825 218.090057,421.539734 198.697723,415.113098 
	C178.507095,408.421814 158.318787,401.721893 138.192276,394.841949 
	C136.549698,394.280457 134.290573,392.394745 134.173340,390.971466 
	C132.603088,371.908325 131.363403,352.817932 130.015686,333.360901 
	C149.925964,333.360901 169.638718,333.360901 189.872162,333.360901 
	C190.215576,337.168762 190.885223,341.091949 190.827011,345.004364 
	C190.776199,348.420532 192.015854,349.909790 195.250122,350.954071 
	C215.645645,357.539429 235.969635,364.346283 256.691681,371.189941 
z"/>
<path fill="#FF4B00" opacity="1.000000" stroke="none" 
	d="
M256.982178,272.642700 
	C280.540833,272.185852 304.109894,272.185852 328.216003,272.185852 
	C327.773773,280.229736 327.455475,287.976135 326.900757,295.705566 
	C325.711823,312.271118 324.269318,328.819763 323.251343,345.395081 
	C323.049194,348.686462 321.788452,349.919281 318.946320,350.843414 
	C298.520813,357.485229 278.134735,364.248413 257.358185,370.919617 
	C256.984344,338.277252 256.988495,305.688416 256.982178,272.642700 
z"/>
</svg>