<svg version="1.1" id="Layer_1" xmlns="http://www.w3.org/2000/svg" xmlns:xlink="http://www.w3.org/1999/xlink" x="0px" y="0px"
	 width="100%" viewBox="0 0 225 225" enable-background="new 0 0 225 225" xml:space="preserve">
<path fill="#FEFEFE" opacity="1.000000" stroke="none" 
	d="
M124.000000,226.000000 
	C82.666672,226.000000 41.833340,226.000000 1.000005,226.000000 
	C1.000004,151.000000 1.000004,76.000015 1.000002,1.000015 
	C75.999992,1.000010 150.999985,1.000010 225.999969,1.000005 
	C225.999985,75.999985 225.999985,150.999969 226.000000,225.999969 
	C192.166672,226.000000 158.333328,226.000000 124.000000,226.000000 
M50.372036,133.845688 
	C40.745781,121.948730 30.781765,110.303131 21.652687,98.036179 
	C17.777851,92.829483 13.612918,92.215691 8.250082,93.246918 
	C8.250082,107.300865 8.250082,121.052902 8.250082,134.840973 
	C10.592799,134.840973 12.677503,134.840973 15.329854,134.840973 
	C15.329854,124.004860 15.329854,113.369522 15.329854,101.680107 
	C23.286703,111.520302 30.842934,120.173340 37.553082,129.439102 
	C41.212284,134.491928 45.265480,136.135117 51.916050,134.997681 
	C63.865192,134.997681 75.814339,134.997681 87.853027,134.997681 
	C87.853027,132.696625 87.853027,130.770142 87.853027,128.206085 
	C77.960052,128.206085 68.248215,128.206085 58.758041,128.206085 
	C58.758041,124.151901 58.758041,120.746910 58.758041,116.985123 
	C66.713951,116.985123 74.319176,116.985123 81.870499,116.985123 
	C81.870499,114.690880 81.870499,112.781532 81.870499,110.410942 
	C74.014763,110.410942 66.426788,110.410942 58.712166,110.410942 
	C58.712166,106.544716 58.712166,103.150726 58.712166,99.329208 
	C68.605286,99.329208 78.193344,99.329208 87.787140,99.329208 
	C87.787140,96.972809 87.787140,95.059685 87.787140,93.267921 
	C75.479065,93.267921 63.438694,93.267921 51.019882,93.267921 
	C51.019882,107.125740 51.019882,120.597878 50.372036,133.845688 
M100.758057,92.889801 
	C99.862640,92.939873 98.967224,92.989944 97.263184,93.085228 
	C107.684662,105.977104 117.873276,117.958549 127.278702,130.526108 
	C130.975449,135.465729 134.889084,135.485489 140.259338,134.662781 
	C134.525085,127.533989 129.146164,120.846939 123.640266,114.002022 
	C129.229202,107.013245 134.643021,100.243416 140.146179,93.361900 
	C133.789780,91.755875 129.514618,93.507439 126.326538,98.772430 
	C124.307144,102.107384 121.413048,104.912697 118.824326,108.061272 
	C115.485321,103.959503 112.190826,100.413185 109.506996,96.453011 
	C107.453918,93.423561 105.027000,92.342918 100.758057,92.889801 
M170.999115,121.492615 
	C170.999115,114.222183 170.999115,106.951752 170.999115,99.169350 
	C176.013153,99.169350 180.570831,99.169350 185.156158,99.169350 
	C185.156158,96.880608 185.156158,95.113869 185.156158,93.270401 
	C172.969238,93.270401 160.960190,93.270401 149.117828,93.270401 
	C149.117828,95.418129 149.117828,97.195183 149.117828,99.455513 
	C154.079590,99.455513 158.808182,99.455513 163.882538,99.455513 
	C163.882538,111.515526 163.882538,123.091972 163.882538,134.741089 
	C166.447876,134.741089 168.636917,134.741089 170.999115,134.741089 
	C170.999115,130.441879 170.999115,126.465775 170.999115,121.492615 
M114.042877,120.347137 
	C113.210747,119.416306 112.378616,118.485481 111.376869,117.364922 
	C106.680542,123.215637 102.189636,128.810440 97.326042,134.869537 
	C98.819008,134.988556 99.459206,135.135223 100.077950,135.071991 
	C102.461746,134.828384 105.611504,135.372559 107.063049,134.060364 
	C110.458733,130.990677 113.089912,127.056709 115.855682,123.342422 
	C116.088051,123.030373 115.005661,121.739326 114.042877,120.347137 
M208.828491,125.847565 
	C209.917130,126.239487 211.049393,126.541779 212.083755,127.045197 
	C213.489349,127.729286 214.858932,128.514313 216.112137,129.435410 
	C216.216995,129.512482 215.349548,131.616394 214.886826,131.635422 
	C213.205734,131.704559 211.468491,131.427811 209.823318,131.005432 
	C208.660461,130.706863 207.612061,129.962448 205.664429,128.996384 
	C208.018539,134.693604 212.053818,136.442749 216.296829,134.084335 
	C217.753036,133.274948 219.214218,131.220200 219.327393,129.638123 
	C219.421188,128.327072 217.702652,126.696732 216.469040,125.549904 
	C215.702179,124.836983 214.268692,124.899834 213.268570,124.364037 
	C212.055893,123.714355 210.923172,122.866096 209.922348,121.926437 
	C209.781647,121.794342 210.554214,120.104347 210.957855,120.081390 
	C212.501053,119.993660 214.109009,120.123451 215.608902,120.503296 
	C216.698776,120.779305 217.656570,121.576782 218.673264,122.141754 
	C219.030823,121.482941 219.388382,120.824135 219.745926,120.165329 
	C217.649948,119.079597 215.583023,117.208000 213.449844,117.129158 
	C211.317062,117.050331 208.616760,118.301552 207.155060,119.884010 
	C206.400558,120.700882 207.795258,123.502892 208.828491,125.847565 
M199.652863,134.294632 
	C200.728867,132.942749 202.535202,131.690536 202.735992,130.219223 
	C203.224625,126.638527 203.064285,122.952751 202.936066,119.317375 
	C202.908234,118.528099 201.919250,117.772720 201.372955,117.001732 
	C200.868210,117.820358 199.979233,118.615761 199.928116,119.461792 
	C199.748581,122.432831 199.984940,125.429497 199.793900,128.399109 
	C199.717270,129.590332 199.181671,131.471039 198.423706,131.718872 
	C197.458420,132.034470 196.076370,130.938278 194.834747,130.591003 
	C193.907776,130.331741 192.918610,130.294815 191.558105,130.102463 
	C192.772812,134.635345 195.428757,135.399139 199.652863,134.294632 
z"/>
<path fill="#090909" opacity="1.000000" stroke="none" 
	d="
M51.019882,134.070023 
	C51.019882,120.597878 51.019882,107.125740 51.019882,93.267921 
	C63.438694,93.267921 75.479065,93.267921 87.787140,93.267921 
	C87.787140,95.059685 87.787140,96.972809 87.787140,99.329208 
	C78.193344,99.329208 68.605286,99.329208 58.712166,99.329208 
	C58.712166,103.150726 58.712166,106.544716 58.712166,110.410942 
	C66.426788,110.410942 74.014763,110.410942 81.870499,110.410942 
	C81.870499,112.781532 81.870499,114.690880 81.870499,116.985123 
	C74.319176,116.985123 66.713951,116.985123 58.758041,116.985123 
	C58.758041,120.746910 58.758041,124.151901 58.758041,128.206085 
	C68.248215,128.206085 77.960052,128.206085 87.853027,128.206085 
	C87.853027,130.770142 87.853027,132.696625 87.853027,134.997681 
	C75.814339,134.997681 63.865192,134.997681 51.454254,134.717194 
	C50.992455,134.436691 51.019882,134.070023 51.019882,134.070023 
z"/>
<path fill="#030303" opacity="1.000000" stroke="none" 
	d="
M50.695961,133.957855 
	C51.019882,134.070023 50.992455,134.436691 50.993889,134.620544 
	C45.265480,136.135117 41.212284,134.491928 37.553082,129.439102 
	C30.842934,120.173340 23.286703,111.520302 15.329854,101.680107 
	C15.329854,113.369522 15.329854,124.004860 15.329854,134.840973 
	C12.677503,134.840973 10.592799,134.840973 8.250082,134.840973 
	C8.250082,121.052902 8.250082,107.300865 8.250082,93.246918 
	C13.612918,92.215691 17.777851,92.829483 21.652687,98.036179 
	C30.781765,110.303131 40.745781,121.948730 50.695961,133.957855 
z"/>
<path fill="#060606" opacity="1.000000" stroke="none" 
	d="
M101.184105,92.889755 
	C105.027000,92.342918 107.453918,93.423561 109.506996,96.453011 
	C112.190826,100.413185 115.485321,103.959503 118.824326,108.061272 
	C121.413048,104.912697 124.307144,102.107384 126.326538,98.772430 
	C129.514618,93.507439 133.789780,91.755875 140.146179,93.361900 
	C134.643021,100.243416 129.229202,107.013245 123.640266,114.002022 
	C129.146164,120.846939 134.525085,127.533989 140.259338,134.662781 
	C134.889084,135.485489 130.975449,135.465729 127.278702,130.526108 
	C117.873276,117.958549 107.684662,105.977104 97.263184,93.085228 
	C98.967224,92.989944 99.862640,92.939873 101.184105,92.889755 
z"/>
<path fill="#000000" opacity="1.000000" stroke="none" 
	d="
M170.999115,121.991150 
	C170.999115,126.465775 170.999115,130.441879 170.999115,134.741089 
	C168.636917,134.741089 166.447876,134.741089 163.882538,134.741089 
	C163.882538,123.091972 163.882538,111.515526 163.882538,99.455513 
	C158.808182,99.455513 154.079590,99.455513 149.117828,99.455513 
	C149.117828,97.195183 149.117828,95.418129 149.117828,93.270401 
	C160.960190,93.270401 172.969238,93.270401 185.156158,93.270401 
	C185.156158,95.113869 185.156158,96.880608 185.156158,99.169350 
	C180.570831,99.169350 176.013153,99.169350 170.999115,99.169350 
	C170.999115,106.951752 170.999115,114.222183 170.999115,121.991150 
z"/>
<path fill="#080808" opacity="1.000000" stroke="none" 
	d="
M114.288483,120.625122 
	C115.005661,121.739326 116.088051,123.030373 115.855682,123.342422 
	C113.089912,127.056709 110.458733,130.990677 107.063049,134.060364 
	C105.611504,135.372559 102.461746,134.828384 100.077950,135.071991 
	C99.459206,135.135223 98.819008,134.988556 97.326042,134.869537 
	C102.189636,128.810440 106.680542,123.215637 111.376869,117.364922 
	C112.378616,118.485481 113.210747,119.416306 114.288483,120.625122 
z"/>
<path fill="#161616" opacity="1.000000" stroke="none" 
	d="
M208.523682,125.627762 
	C207.795258,123.502892 206.400558,120.700882 207.155060,119.884010 
	C208.616760,118.301552 211.317062,117.050331 213.449844,117.129158 
	C215.583023,117.208000 217.649948,119.079597 219.745926,120.165329 
	C219.388382,120.824135 219.030823,121.482941 218.673264,122.141754 
	C217.656570,121.576782 216.698776,120.779305 215.608902,120.503296 
	C214.109009,120.123451 212.501053,119.993660 210.957855,120.081390 
	C210.554214,120.104347 209.781647,121.794342 209.922348,121.926437 
	C210.923172,122.866096 212.055893,123.714355 213.268570,124.364037 
	C214.268692,124.899834 215.702179,124.836983 216.469040,125.549904 
	C217.702652,126.696732 219.421188,128.327072 219.327393,129.638123 
	C219.214218,131.220200 217.753036,133.274948 216.296829,134.084335 
	C212.053818,136.442749 208.018539,134.693604 205.664429,128.996384 
	C207.612061,129.962448 208.660461,130.706863 209.823318,131.005432 
	C211.468491,131.427811 213.205734,131.704559 214.886826,131.635422 
	C215.349548,131.616394 216.216995,129.512482 216.112137,129.435410 
	C214.858932,128.514313 213.489349,127.729286 212.083755,127.045197 
	C211.049393,126.541779 209.917130,126.239487 208.523682,125.627762 
z"/>
<path fill="#080808" opacity="1.000000" stroke="none" 
	d="
M199.292664,134.472427 
	C195.428757,135.399139 192.772812,134.635345 191.558105,130.102463 
	C192.918610,130.294815 193.907776,130.331741 194.834747,130.591003 
	C196.076370,130.938278 197.458420,132.034470 198.423706,131.718872 
	C199.181671,131.471039 199.717270,129.590332 199.793900,128.399109 
	C199.984940,125.429497 199.748581,122.432831 199.928116,119.461792 
	C199.979233,118.615761 200.868210,117.820358 201.372955,117.001724 
	C201.919250,117.772720 202.908234,118.528099 202.936066,119.317375 
	C203.064285,122.952751 203.224625,126.638527 202.735992,130.219223 
	C202.535202,131.690536 200.728867,132.942749 199.292664,134.472427 
z"/>
</svg>