<svg version="1.1" id="Layer_1" xmlns="http://www.w3.org/2000/svg" xmlns:xlink="http://www.w3.org/1999/xlink" x="0px" y="0px"
	 width="100%" viewBox="0 0 920 920" enable-background="new 0 0 920 920" xml:space="preserve">
<path fill="#FFFFFF" opacity="1.000000" stroke="none" 
	d="
M0.999995,766.000000 
	C1.000000,561.309265 1.000000,356.618500 1.397444,151.451904 
	C5.903695,146.873123 4.870386,141.515625 6.045559,136.273804 
	C3.896537,136.157181 2.448268,136.078598 1.000000,136.000000 
	C1.000000,131.308624 1.000000,126.617249 1.451265,121.462791 
	C3.711828,120.999443 5.569983,121.255905 7.316095,120.923615 
	C8.924691,120.617485 11.323730,120.062218 11.791895,118.950302 
	C13.548631,114.778015 14.657671,110.333008 16.004511,105.995544 
	C15.999576,106.000885 15.990809,106.012550 16.299328,105.856995 
	C19.291937,101.079338 21.976027,96.457230 25.150555,90.990578 
	C21.454075,90.990578 18.722145,90.990578 15.995119,90.995285 
	C16.000023,91.000000 16.009436,91.009789 16.005835,90.542664 
	C16.004539,85.380539 16.006845,80.685555 16.004076,75.995819 
	C15.999002,76.001068 15.990216,76.009422 16.458427,76.005829 
	C21.338984,75.851074 27.597672,77.384232 29.677036,75.104828 
	C32.055458,72.497597 30.720245,66.501465 30.993620,61.977520 
	C31.013424,61.649815 30.992535,61.319653 31.458832,60.993942 
	C36.455666,60.731361 42.436924,62.080540 45.072426,59.709995 
	C47.352886,57.658794 45.836143,51.385010 45.994663,46.977612 
	C46.006474,46.649094 45.992535,46.319645 46.458836,45.993942 
	C51.455685,45.731358 57.436970,47.080536 60.072483,44.709988 
	C62.353092,42.658657 60.836712,36.384964 60.995434,31.977539 
	C61.007267,31.649031 60.992847,31.319578 61.458458,30.993450 
	C66.455078,30.730808 72.436417,32.080570 75.072418,29.710165 
	C77.353996,27.658476 75.839584,21.384802 76.000854,16.977247 
	C76.012878,16.648573 76.006989,16.319242 76.005249,15.994609 
	C76.001068,15.999002 75.990562,16.009151 76.457275,16.006058 
	C81.619255,16.005121 86.314522,16.007278 91.004898,16.004730 
	C91.000000,16.000023 90.990578,15.990216 90.994095,16.428249 
	C90.997612,19.297628 90.997612,21.728977 90.997612,25.517147 
	C96.623497,21.946980 101.316811,18.968620 106.005157,15.995090 
	C106.000191,15.999919 105.990211,16.009447 106.392982,16.005207 
	C107.921875,15.807590 109.084328,15.733250 110.168503,15.402419 
	C121.002571,12.096464 120.998940,12.084553 121.000000,1.000000 
	C125.691376,1.000000 130.382751,1.000000 135.537201,1.401283 
	C136.071579,3.261707 136.142868,4.720850 136.225449,6.410869 
	C140.743423,5.553185 144.977188,4.887365 149.116394,3.845786 
	C149.931366,3.640705 150.381577,1.986102 151.000000,1.000001 
	C355.690765,1.000000 560.381531,1.000000 765.605469,1.372929 
	C769.660400,2.755037 773.172485,3.799340 776.706543,4.763129 
	C779.969177,5.652888 781.401245,4.345182 781.000000,1.000000 
	C785.691345,1.000000 790.382751,1.000000 795.537048,1.448675 
	C796.000549,9.999455 800.058167,13.309072 811.000000,13.923266 
	C811.000000,9.608414 811.000000,5.304207 811.000000,1.000000 
	C815.691345,1.000000 820.382751,1.000000 825.537048,1.466166 
	C826.003235,6.624796 826.006531,11.317259 825.551270,16.006304 
	C821.759399,16.002886 818.426025,16.002886 813.805481,16.002886 
	C818.478333,18.365231 821.884338,20.087130 825.990295,22.162912 
	C825.990295,19.567677 825.990295,17.778946 826.457031,15.993212 
	C831.619141,16.000618 836.314453,16.005026 841.004883,16.004757 
	C841.000000,16.000078 840.990723,15.990216 840.994263,16.458427 
	C841.148987,21.338966 839.615723,27.597637 841.895081,29.676985 
	C844.502319,32.055405 850.498413,30.720230 855.022339,30.993620 
	C855.350037,31.013424 855.680176,30.992535 856.005981,31.450977 
	C855.755981,44.556175 854.710693,46.386421 870.027039,45.997253 
	C870.354309,45.988937 870.681824,45.992531 871.006104,46.447334 
	C870.245422,59.555862 872.562622,61.731052 885.024231,60.999420 
	C885.351685,60.980198 885.680908,60.992836 886.006470,61.456230 
	C886.003906,65.227898 886.078674,68.536125 885.982178,71.839355 
	C885.896851,74.761742 887.129150,76.098869 890.099976,76.018120 
	C893.734009,75.919334 897.372681,75.992058 901.006470,76.458450 
	C901.269104,81.455078 899.919434,87.436356 902.289856,90.072395 
	C904.341553,92.353951 910.615234,90.839600 915.022766,91.000854 
	C915.351440,91.012886 915.680725,91.006989 916.005371,91.005325 
	C916.000916,91.001228 915.991211,90.990768 915.994202,91.457474 
	C915.995056,96.619377 915.992859,101.314583 915.995361,106.004898 
	C916.000000,106.000000 916.009766,105.990578 915.552368,105.994141 
	C911.879639,105.997704 908.664368,105.997704 904.956543,105.997704 
	C906.512573,109.977577 908.025757,112.946243 908.816162,116.096291 
	C909.822083,120.105362 912.109985,121.569237 916.005371,121.005325 
	C916.000916,121.001228 915.991211,120.990768 915.994263,121.458344 
	C915.997253,126.452530 915.997253,130.979126 915.997253,135.750168 
	C918.113892,135.855865 919.556946,135.927933 921.000000,136.000000 
	C921.000000,350.690765 921.000000,565.381531 920.567261,780.536499 
	C916.868347,780.519104 915.755371,781.969910 915.949890,785.174133 
	C916.168396,788.773560 915.994080,792.396851 915.995361,796.004883 
	C916.000000,796.000000 916.009766,795.990662 915.614624,795.995239 
	C914.214966,796.361328 912.579041,796.464294 912.308044,797.126160 
	C910.507935,801.522888 909.000061,806.039368 907.220764,811.009277 
	C910.793701,811.009277 913.401733,811.009277 916.005371,811.005127 
	C916.000977,811.000916 915.991211,810.990784 915.994202,811.457520 
	C915.994995,816.619385 915.992859,821.314575 915.995361,826.004883 
	C916.000000,826.000000 916.009766,825.990723 915.541565,825.994263 
	C910.661072,826.148987 904.402405,824.615784 902.323059,826.895142 
	C899.944641,829.502319 901.279724,835.498474 901.006287,840.022339 
	C900.986450,840.350037 901.007263,840.680176 900.551636,841.005981 
	C894.698975,840.777954 888.871643,839.974792 886.862061,846.872437 
	C886.021912,849.756104 886.260925,852.954102 885.580811,856.005981 
	C877.674988,856.013977 871.008240,863.087708 870.595947,871.006592 
	C862.469910,871.099915 855.989197,877.961060 855.563843,886.006409 
	C854.299011,886.002380 853.479553,885.999268 852.660034,886.000305 
	C844.119080,886.011353 840.995972,889.109436 841.000305,897.567383 
	C841.000916,898.714661 841.006165,899.862000 840.541382,901.006348 
	C835.544861,901.269043 829.563599,899.919495 826.927673,902.289917 
	C824.646179,904.341736 826.160461,910.615234 825.999268,915.022766 
	C825.987244,915.351440 825.993164,915.680725 825.994873,916.005371 
	C825.999084,916.000977 826.009216,915.991211 825.542480,915.994202 
	C820.380615,915.995056 815.685425,915.992859 810.995117,915.995361 
	C811.000000,916.000000 811.009277,916.009766 811.005798,915.569824 
	C811.002319,912.686523 811.002319,910.243042 811.002319,907.111877 
	C806.154358,908.888977 801.890198,910.230591 797.861633,912.084045 
	C796.850098,912.549438 796.593933,914.656921 795.995361,916.004883 
	C796.000000,916.000000 796.009766,915.990723 795.544006,915.994263 
	C792.113770,915.998596 789.137268,916.168762 786.187927,915.957764 
	C782.411011,915.687500 780.504700,917.027466 781.000000,921.000000 
	C566.309265,921.000000 351.618500,921.000000 136.463455,920.567261 
	C136.481094,916.868347 135.030060,915.755432 131.826187,915.949951 
	C128.226868,916.168335 124.603752,915.994568 120.996201,915.996216 
	C121.001404,916.000977 121.009422,916.009766 121.005844,915.601196 
	C120.183502,913.397156 119.838921,910.722961 118.454422,909.975769 
	C114.750549,907.977051 110.600609,906.804871 105.990578,905.063538 
	C105.990578,909.094727 105.990578,912.552246 105.994644,916.005371 
	C105.998711,916.000977 106.009033,915.991394 105.542343,915.994324 
	C100.380508,915.995056 95.685364,915.992859 90.995102,915.995361 
	C91.000000,916.000000 91.009422,916.009766 91.005829,915.541565 
	C90.851082,910.661011 92.384224,904.402344 90.104843,902.322937 
	C87.497612,899.944458 81.501457,901.279785 76.977509,901.006287 
	C76.649811,900.986511 76.319641,901.007385 75.993927,900.543335 
	C75.996590,896.771301 75.921188,893.463196 76.017685,890.160095 
	C76.103081,887.237183 74.869728,885.901062 71.899635,885.981689 
	C68.265724,886.080322 64.627167,886.007812 60.993912,885.552612 
	C61.755646,872.428589 59.421700,870.269775 46.975681,871.000732 
	C46.648273,871.019958 46.318981,871.007141 45.993431,870.549072 
	C45.997196,867.791809 46.034351,865.493896 45.991566,863.197510 
	C45.898651,858.210754 43.784454,856.076843 38.866531,856.007568 
	C36.241737,855.970581 33.615921,856.006348 30.993450,855.541443 
	C30.730793,850.544800 32.080444,844.563660 29.710102,841.927490 
	C27.658455,839.645996 21.384789,841.160400 16.977247,840.999207 
	C16.648571,840.987183 16.319241,840.993103 15.995148,840.995361 
	C16.000078,841.000000 16.009436,841.009766 16.005836,840.542603 
	C15.998229,835.380432 15.994223,830.685364 16.384890,825.993652 
	C18.289362,825.910828 19.799162,825.824707 21.795641,825.710815 
	C19.817616,821.702148 18.162769,818.348450 16.009722,813.985107 
	C16.009722,818.799500 16.009722,822.404602 15.543005,826.006714 
	C10.384192,826.002502 5.692096,826.001221 1.000000,826.000000 
	C1.000000,821.308655 1.000000,816.617249 1.463644,811.462952 
	C6.012414,811.000000 10.097539,811.000000 14.762279,811.000000 
	C13.744683,808.015625 12.636792,805.747620 12.220984,803.359009 
	C11.074074,796.771057 7.083434,794.877563 1.000000,796.000000 
	C1.000000,791.308655 1.000000,786.617249 1.409331,781.460999 
	C2.808403,780.604431 4.693196,779.999939 4.658003,779.851868 
	C3.553774,775.207214 2.262616,770.606995 0.999995,766.000000 
M753.252197,265.226685 
	C729.648743,265.226685 706.045288,265.226685 681.999695,265.226685 
	C681.999695,267.284088 681.999695,269.075073 681.999695,270.866028 
	C681.999695,299.864960 682.134705,328.864716 681.951782,357.862488 
	C681.831482,376.934418 678.638550,395.452484 670.991028,413.104340 
	C656.872559,445.692017 632.135071,465.415619 597.408203,470.935211 
	C579.974976,473.706085 561.952515,473.098480 544.186646,473.367035 
	C520.034058,473.732178 495.872101,473.475769 471.714142,473.481567 
	C447.581512,473.487335 423.448853,473.523651 399.316315,473.478607 
	C381.499695,473.445343 363.692993,473.222626 346.282745,478.060730 
	C323.271606,484.455322 303.123596,495.349854 288.888794,515.131653 
	C275.384460,533.898376 270.799103,555.346375 270.779755,578.128052 
	C270.729065,637.788452 270.366272,697.448853 270.434326,757.108948 
	C270.464630,783.681580 283.199097,804.015686 303.515808,820.053223 
	C326.138885,837.911499 352.789032,846.376709 380.485352,851.948975 
	C410.386566,857.964783 440.701477,859.486389 471.145782,859.242554 
	C504.090759,858.978760 536.821289,856.791992 568.961426,848.981323 
	C592.417114,843.281189 614.745850,834.996399 633.346497,818.985596 
	C647.085205,807.159851 656.410706,792.601135 656.530945,773.912048 
	C656.723389,743.973999 656.254578,714.031677 656.046814,684.091187 
	C656.037964,682.820679 655.843079,681.551453 655.695862,679.824097 
	C591.336975,679.824097 527.268982,679.824097 463.073853,679.824097 
	C463.073853,670.670288 463.073853,662.007996 463.073853,652.901855 
	C465.147858,652.901855 466.916382,652.903137 468.684906,652.901611 
	C502.837738,652.872070 536.990540,652.802917 571.143372,652.821167 
	C626.817932,652.850952 682.492737,653.049561 738.167053,652.954285 
	C767.065063,652.904785 791.781311,642.250977 812.693420,622.418640 
	C825.924866,609.870361 835.564331,594.846313 842.625977,578.233765 
	C852.828064,554.233398 859.546448,529.278809 859.931335,503.025513 
	C860.263611,480.364594 859.486572,457.680054 860.139709,435.033112 
	C860.841919,410.684967 857.529663,386.988068 850.956177,363.684998 
	C843.994324,339.005249 833.770874,315.905792 816.096619,296.814545 
	C799.369202,278.746033 779.069336,267.477356 753.252197,265.226685 
M623.162659,104.324020 
	C605.767029,90.360489 585.665527,81.999550 564.390381,76.184784 
	C538.022522,68.978142 511.073639,65.986267 483.806488,64.850769 
	C443.529877,63.173512 403.507294,64.738724 363.979797,73.138618 
	C338.114197,78.635262 313.363739,87.028214 292.951385,104.773933 
	C278.548737,117.295074 269.890747,132.592575 270.104828,152.419006 
	C270.429840,182.518951 270.189819,212.625000 270.189819,243.377716 
	C334.863495,243.377716 399.079895,243.377716 463.266479,243.377716 
	C463.266479,252.909668 463.266479,261.785919 463.266479,270.844788 
	C460.162903,270.844788 457.509033,270.845917 454.855164,270.844666 
	C366.507385,270.802704 278.159607,270.752594 189.811829,270.722412 
	C155.406036,270.710663 127.249176,284.422333 105.401024,310.581482 
	C82.609261,337.870483 72.921638,370.698578 68.011391,405.146912 
	C64.443825,430.175568 63.406010,455.358795 64.645340,480.660370 
	C65.760254,503.421875 67.817184,526.028198 73.006104,548.257751 
	C79.285843,575.160400 88.862511,600.615540 106.771133,622.179688 
	C126.417923,645.836914 151.346634,658.788330 182.489380,658.776855 
	C201.322235,658.769958 220.155090,658.775635 238.987946,658.775635 
	C240.759445,658.775635 242.530945,658.775635 244.281647,658.775635 
	C244.281647,626.000732 243.954391,593.869751 244.399353,561.749390 
	C244.684998,541.128723 249.369492,521.326965 258.965637,502.892395 
	C271.496948,478.819366 290.817474,462.973633 316.826996,455.192963 
	C331.309326,450.860596 346.134644,449.738068 361.150360,449.752441 
	C420.315430,449.808990 479.480804,449.848511 538.645569,449.699890 
	C547.917358,449.676605 557.285339,449.311523 566.437622,447.952057 
	C589.264404,444.561462 609.958862,436.016083 626.829041,419.797455 
	C647.900269,399.540039 654.720032,373.524597 654.888000,345.507477 
	C655.251648,284.844513 655.000854,224.177917 654.995178,163.512802 
	C654.995056,162.014969 655.063171,160.498169 654.863342,159.022171 
	C651.844604,136.719315 641.083191,118.852371 623.162659,104.324020 
z"/>
<path fill="#FFCA01" opacity="1.000000" stroke="none" 
	d="
M753.718994,265.283203 
	C779.069336,267.477356 799.369202,278.746033 816.096619,296.814545 
	C833.770874,315.905792 843.994324,339.005249 850.956177,363.684998 
	C857.529663,386.988068 860.841919,410.684967 860.139709,435.033112 
	C859.486572,457.680054 860.263611,480.364594 859.931335,503.025513 
	C859.546448,529.278809 852.828064,554.233398 842.625977,578.233765 
	C835.564331,594.846313 825.924866,609.870361 812.693420,622.418640 
	C791.781311,642.250977 767.065063,652.904785 738.167053,652.954285 
	C682.492737,653.049561 626.817932,652.850952 571.143372,652.821167 
	C536.990540,652.802917 502.837738,652.872070 468.684906,652.901611 
	C466.916382,652.903137 465.147858,652.901855 463.073853,652.901855 
	C463.073853,662.007996 463.073853,670.670288 463.073853,679.824097 
	C527.268982,679.824097 591.336975,679.824097 655.695862,679.824097 
	C655.843079,681.551453 656.037964,682.820679 656.046814,684.091187 
	C656.254578,714.031677 656.723389,743.973999 656.530945,773.912048 
	C656.410706,792.601135 647.085205,807.159851 633.346497,818.985596 
	C614.745850,834.996399 592.417114,843.281189 568.961426,848.981323 
	C536.821289,856.791992 504.090759,858.978760 471.145782,859.242554 
	C440.701477,859.486389 410.386566,857.964783 380.485352,851.948975 
	C352.789032,846.376709 326.138885,837.911499 303.515808,820.053223 
	C283.199097,804.015686 270.464630,783.681580 270.434326,757.108948 
	C270.366272,697.448853 270.729065,637.788452 270.779755,578.128052 
	C270.799103,555.346375 275.384460,533.898376 288.888794,515.131653 
	C303.123596,495.349854 323.271606,484.455322 346.282745,478.060730 
	C363.692993,473.222626 381.499695,473.445343 399.316315,473.478607 
	C423.448853,473.523651 447.581512,473.487335 471.714142,473.481567 
	C495.872101,473.475769 520.034058,473.732178 544.186646,473.367035 
	C561.952515,473.098480 579.974976,473.706085 597.408203,470.935211 
	C632.135071,465.415619 656.872559,445.692017 670.991028,413.104340 
	C678.638550,395.452484 681.831482,376.934418 681.951782,357.862488 
	C682.134705,328.864716 681.999695,299.864960 681.999695,270.866028 
	C681.999695,269.075073 681.999695,267.284088 681.999695,265.226685 
	C706.045288,265.226685 729.648743,265.226685 753.718994,265.283203 
M596.695740,737.778748 
	C589.628601,731.261963 581.332153,728.382874 571.687866,728.577209 
	C553.605225,728.941589 538.230103,744.321411 538.063782,762.581055 
	C537.892761,781.345276 553.181396,797.607605 571.361145,797.999146 
	C586.143311,798.317444 599.176819,790.253967 604.841919,777.285400 
	C610.636597,764.020264 607.748352,749.273438 596.695740,737.778748 
z"/>
<path fill="#00264F" opacity="1.000000" stroke="none" 
	d="
M623.430725,104.561394 
	C641.083191,118.852371 651.844604,136.719315 654.863342,159.022171 
	C655.063171,160.498169 654.995056,162.014969 654.995178,163.512802 
	C655.000854,224.177917 655.251648,284.844513 654.888000,345.507477 
	C654.720032,373.524597 647.900269,399.540039 626.829041,419.797455 
	C609.958862,436.016083 589.264404,444.561462 566.437622,447.952057 
	C557.285339,449.311523 547.917358,449.676605 538.645569,449.699890 
	C479.480804,449.848511 420.315430,449.808990 361.150360,449.752441 
	C346.134644,449.738068 331.309326,450.860596 316.826996,455.192963 
	C290.817474,462.973633 271.496948,478.819366 258.965637,502.892395 
	C249.369492,521.326965 244.684998,541.128723 244.399353,561.749390 
	C243.954391,593.869751 244.281647,626.000732 244.281647,658.775635 
	C242.530945,658.775635 240.759445,658.775635 238.987946,658.775635 
	C220.155090,658.775635 201.322235,658.769958 182.489380,658.776855 
	C151.346634,658.788330 126.417923,645.836914 106.771133,622.179688 
	C88.862511,600.615540 79.285843,575.160400 73.006104,548.257751 
	C67.817184,526.028198 65.760254,503.421875 64.645340,480.660370 
	C63.406010,455.358795 64.443825,430.175568 68.011391,405.146912 
	C72.921638,370.698578 82.609261,337.870483 105.401024,310.581482 
	C127.249176,284.422333 155.406036,270.710663 189.811829,270.722412 
	C278.159607,270.752594 366.507385,270.802704 454.855164,270.844666 
	C457.509033,270.845917 460.162903,270.844788 463.266479,270.844788 
	C463.266479,261.785919 463.266479,252.909668 463.266479,243.377716 
	C399.079895,243.377716 334.863495,243.377716 270.189819,243.377716 
	C270.189819,212.625000 270.429840,182.518951 270.104828,152.419006 
	C269.890747,132.592575 278.548737,117.295074 292.951385,104.773933 
	C313.363739,87.028214 338.114197,78.635262 363.979797,73.138618 
	C403.507294,64.738724 443.529877,63.173512 483.806488,64.850769 
	C511.073639,65.986267 538.022522,68.978142 564.390381,76.184784 
	C585.665527,81.999550 605.767029,90.360489 623.430725,104.561394 
M330.724945,186.819702 
	C337.565369,192.310760 345.272552,195.178925 354.143616,195.033905 
	C368.530151,194.798691 381.453003,185.452866 386.166107,171.633270 
	C390.798126,158.051468 386.245117,141.859116 375.380005,133.273270 
	C363.940643,124.233658 347.322876,123.088341 335.317871,130.512161 
	C315.334259,142.869888 312.918579,169.138565 330.724945,186.819702 
z"/>
</svg>