<svg version="1.1" id="Layer_1" xmlns="http://www.w3.org/2000/svg" xmlns:xlink="http://www.w3.org/1999/xlink" x="0px" y="0px"
	 width="100%" viewBox="0 0 512 512" enable-background="new 0 0 512 512" xml:space="preserve">
<path fill="#016BC0" opacity="1.000000" stroke="none" 
	d="
M235.000000,1.000001 
	C249.687561,1.000000 264.375122,1.000000 279.714966,1.385104 
	C283.947235,2.177849 287.581177,2.321293 291.097626,3.039744 
	C304.903107,5.860365 318.827850,8.281647 332.415222,11.939790 
	C350.473389,16.801617 367.391266,24.604485 383.682770,33.870163 
	C399.467224,42.847462 414.244232,53.217377 427.645996,65.364182 
	C436.467255,73.359459 444.484650,82.279488 452.513275,91.102760 
	C465.067200,104.899254 475.124359,120.517365 483.897980,136.891739 
	C492.792572,153.491745 499.904724,170.938309 504.484924,189.217148 
	C507.360168,200.691650 508.907379,212.498917 510.660980,224.298706 
	C493.144379,218.070648 475.509125,216.169769 458.014465,219.108444 
	C455.494873,210.861694 453.633240,203.249466 450.840942,195.995499 
	C446.928284,185.830811 441.828766,176.286530 432.441956,169.871628 
	C424.068756,164.149414 421.262146,164.575577 415.340363,172.606857 
	C398.734314,195.128387 397.597076,219.552856 406.562622,245.152191 
	C409.419952,253.310638 408.892700,255.435059 400.379120,257.314758 
	C392.815399,258.984711 384.916046,259.830139 377.163055,259.841797 
	C272.201050,259.999420 167.238724,259.947845 62.276478,259.947968 
	C60.326546,259.947968 58.376610,259.947937 56.140263,259.947937 
	C55.982342,262.046631 55.824390,263.671936 55.742786,265.301056 
	C54.438232,291.344696 57.285362,316.882202 66.150871,341.475861 
	C81.266342,383.407471 110.182327,410.397736 153.815704,420.975281 
	C184.961700,428.525665 216.444321,429.061829 248.084412,425.011017 
	C292.129242,419.372070 333.203674,405.243683 370.468872,380.918640 
	C398.396545,362.688721 421.536896,339.716125 436.385071,309.438934 
	C441.398163,299.216675 444.929840,288.267914 449.244965,277.382751 
	C487.366974,273.051727 493.568878,270.695312 513.000000,253.000000 
	C513.000000,261.354218 513.000000,269.708466 512.612915,278.718140 
	C511.819489,283.288818 511.701935,287.260162 510.953827,291.108887 
	C508.542145,303.516113 506.374176,316.000214 503.238739,328.230743 
	C497.729431,349.721100 489.136871,370.056030 476.942963,388.610138 
	C468.825409,400.961731 460.075989,412.960388 450.833588,424.495392 
	C438.003662,440.507843 422.650909,454.004974 406.006622,465.979919 
	C387.730835,479.128693 367.995819,489.689056 346.903076,497.468811 
	C328.920471,504.101471 310.429504,509.031616 291.262268,511.039886 
	C287.151520,511.470581 283.086243,512.335266 279.000000,513.000000 
	C264.645782,513.000000 250.291550,513.000000 235.281860,512.612915 
	C230.711212,511.819519 226.739899,511.701935 222.891144,510.953827 
	C210.483932,508.542145 197.999817,506.374237 185.769302,503.238739 
	C164.278976,497.729370 143.943954,489.136932 125.389885,476.943024 
	C113.038269,468.825439 101.039627,460.076019 89.504623,450.833588 
	C73.492210,438.003601 59.995064,422.650848 48.020069,406.006561 
	C34.871304,387.730804 24.310925,367.995850 16.531158,346.903076 
	C9.898517,328.920471 4.968386,310.429504 2.960108,291.262268 
	C2.529395,287.151520 1.664750,283.086243 1.000001,279.000000 
	C1.000000,264.645782 1.000000,250.291550 1.387119,235.281860 
	C2.180488,230.711273 2.298084,226.740036 3.046173,222.891327 
	C5.457828,210.484085 7.625675,197.999939 10.761168,185.769424 
	C16.270557,164.279114 24.862947,143.944077 37.056927,125.390030 
	C45.174564,113.038445 53.923943,101.039772 63.166332,89.504730 
	C75.996239,73.492256 91.349083,59.995167 107.993332,48.020119 
	C126.269081,34.871265 146.004105,24.310968 167.096878,16.531181 
	C185.079498,9.898533 203.570480,4.968390 222.737717,2.960109 
	C226.848480,2.529395 230.913757,1.664750 235.000000,1.000001 
M115.499863,208.367188 
	C107.398262,208.367188 99.296654,208.367188 90.959305,208.367188 
	C90.959305,222.452438 90.959305,235.992355 90.959305,249.586456 
	C106.019096,249.586456 120.757042,249.586456 135.684845,249.586456 
	C135.684845,235.816727 135.684845,222.305206 135.684845,208.367233 
	C129.079590,208.367233 122.789551,208.367233 115.499863,208.367188 
M160.514877,249.843109 
	C171.268295,249.843109 182.021713,249.843109 192.733459,249.843109 
	C192.733459,235.680771 192.733459,222.262451 192.733459,208.664902 
	C177.703522,208.664902 162.962921,208.664902 148.161026,208.664902 
	C148.161026,222.488632 148.161026,236.010956 148.161026,249.843094 
	C152.237686,249.843094 155.880280,249.843094 160.514877,249.843109 
M250.039734,222.507767 
	C250.039734,217.918716 250.039734,213.329666 250.039734,208.717590 
	C234.600143,208.717590 219.867569,208.717590 205.020432,208.717590 
	C205.020432,222.484894 205.020432,235.900116 205.020432,249.578003 
	C220.047348,249.578003 234.777847,249.578003 250.039734,249.578003 
	C250.039734,240.731644 250.039734,232.118576 250.039734,222.507767 
M261.795746,245.331726 
	C261.922150,246.748276 262.048523,248.164810 262.164551,249.464966 
	C277.370697,249.464966 292.092865,249.464966 306.758240,249.464966 
	C306.758240,235.668365 306.758240,222.251831 306.758240,208.673248 
	C291.716980,208.673248 276.979034,208.673248 261.795471,208.673248 
	C261.795471,220.769806 261.795471,232.565796 261.795746,245.331726 
M364.078583,232.498383 
	C364.078583,224.583221 364.078583,216.668060 364.078583,208.715652 
	C348.638245,208.715652 333.912048,208.715652 319.100464,208.715652 
	C319.100464,222.481827 319.100464,235.897888 319.100464,249.577515 
	C334.099915,249.577515 348.821503,249.577515 364.078583,249.577515 
	C364.078583,244.056732 364.078583,238.777100 364.078583,232.498383 
M301.435669,155.656708 
	C288.362488,155.656708 275.289337,155.656708 262.080658,155.656708 
	C262.080658,169.710403 262.080658,183.094162 262.080658,196.554230 
	C277.197388,196.554230 292.035217,196.554230 306.711700,196.554230 
	C306.711700,182.750336 306.711700,169.344086 306.711700,155.657028 
	C305.056061,155.657028 303.739105,155.657028 301.435669,155.656708 
M211.529358,155.656647 
	C209.424347,155.656647 207.319336,155.656647 204.994843,155.656647 
	C204.994843,169.657532 204.994843,183.044693 204.994843,196.584778 
	C220.105240,196.584778 234.953583,196.584778 249.717346,196.584778 
	C249.717346,182.808243 249.717346,169.398758 249.717346,155.656601 
	C237.112274,155.656601 224.819519,155.656601 211.529358,155.656647 
M191.351227,155.707352 
	C176.946472,155.707352 162.541733,155.707352 148.039459,155.707352 
	C148.039459,169.739502 148.039459,183.121918 148.039459,196.713165 
	C163.066345,196.713165 177.788712,196.713165 193.012909,196.713165 
	C193.012909,186.714340 193.076538,176.944122 192.980743,167.175476 
	C192.943863,163.413925 192.544342,159.655945 191.351227,155.707352 
M279.501160,144.051208 
	C288.582306,144.051208 297.663483,144.051208 306.769836,144.051208 
	C306.769836,130.023209 306.769836,116.635002 306.769836,103.256271 
	C291.649963,103.256271 276.815399,103.256271 262.195801,103.256271 
	C262.195801,117.059433 262.195801,130.437210 262.195801,144.051208 
	C267.889343,144.051208 273.195526,144.051208 279.501160,144.051208 
z"/>
<path fill="#F2F2F2" opacity="1.000000" stroke="none" 
	d="
M513.000000,252.532059 
	C493.568878,270.695312 487.366974,273.051727 449.244965,277.382751 
	C444.929840,288.267914 441.398163,299.216675 436.385071,309.438934 
	C421.536896,339.716125 398.396545,362.688721 370.468872,380.918640 
	C333.203674,405.243683 292.129242,419.372070 248.084412,425.011017 
	C216.444321,429.061829 184.961700,428.525665 153.815704,420.975281 
	C110.182327,410.397736 81.266342,383.407471 66.150871,341.475861 
	C57.285362,316.882202 54.438232,291.344696 55.742786,265.301056 
	C55.824390,263.671936 55.982342,262.046631 56.140263,259.947937 
	C58.376610,259.947937 60.326546,259.947968 62.276478,259.947968 
	C167.238724,259.947845 272.201050,259.999420 377.163055,259.841797 
	C384.916046,259.830139 392.815399,258.984711 400.379120,257.314758 
	C408.892700,255.435059 409.419952,253.310638 406.562622,245.152191 
	C397.597076,219.552856 398.734314,195.128387 415.340363,172.606857 
	C421.262146,164.575577 424.068756,164.149414 432.441956,169.871628 
	C441.828766,176.286530 446.928284,185.830811 450.840942,195.995499 
	C453.633240,203.249466 455.494873,210.861694 458.014465,219.108444 
	C475.509125,216.169769 493.144379,218.070648 510.764099,224.566727 
	C511.837799,225.128616 512.418884,225.564301 513.000000,226.000000 
	C513.000000,228.041672 513.000000,230.083328 512.865906,232.750153 
	C512.821167,233.916870 512.910583,234.458435 513.000000,235.000000 
	C513.000000,240.688034 513.000000,246.376083 513.000000,252.532059 
z"/>

<path fill="#FFFFFF" opacity="1.000000" stroke="none" 
	d="
M513.000000,234.666672 
	C512.910583,234.458435 512.821167,233.916870 512.865906,233.187653 
	C513.000000,233.444443 513.000000,233.888901 513.000000,234.666672 
z"/>
<path fill="#EEF0F1" opacity="1.000000" stroke="none" 
	d="
M115.999695,208.367218 
	C122.789551,208.367233 129.079590,208.367233 135.684845,208.367233 
	C135.684845,222.305206 135.684845,235.816727 135.684845,249.586456 
	C120.757042,249.586456 106.019096,249.586456 90.959305,249.586456 
	C90.959305,235.992355 90.959305,222.452438 90.959305,208.367188 
	C99.296654,208.367188 107.398262,208.367188 115.999695,208.367218 
z"/>
<path fill="#EEF0F1" opacity="1.000000" stroke="none" 
	d="
M160.018875,249.843109 
	C155.880280,249.843094 152.237686,249.843094 148.161026,249.843094 
	C148.161026,236.010956 148.161026,222.488632 148.161026,208.664902 
	C162.962921,208.664902 177.703522,208.664902 192.733459,208.664902 
	C192.733459,222.262451 192.733459,235.680771 192.733459,249.843109 
	C182.021713,249.843109 171.268295,249.843109 160.018875,249.843109 
z"/>
<path fill="#EEF0F1" opacity="1.000000" stroke="none" 
	d="
M250.039734,223.006638 
	C250.039734,232.118576 250.039734,240.731644 250.039734,249.578003 
	C234.777847,249.578003 220.047348,249.578003 205.020432,249.578003 
	C205.020432,235.900116 205.020432,222.484894 205.020432,208.717590 
	C219.867569,208.717590 234.600143,208.717590 250.039734,208.717590 
	C250.039734,213.329666 250.039734,217.918716 250.039734,223.006638 
z"/>
<path fill="#EEF0F1" opacity="1.000000" stroke="none" 
	d="
M261.795593,244.846756 
	C261.795471,232.565796 261.795471,220.769806 261.795471,208.673248 
	C276.979034,208.673248 291.716980,208.673248 306.758240,208.673248 
	C306.758240,222.251831 306.758240,235.668365 306.758240,249.464966 
	C292.092865,249.464966 277.370697,249.464966 262.164551,249.464966 
	C262.048523,248.164810 261.922150,246.748276 261.795593,244.846756 
z"/>
<path fill="#EEF0F1" opacity="1.000000" stroke="none" 
	d="
M364.078583,232.997925 
	C364.078583,238.777100 364.078583,244.056732 364.078583,249.577515 
	C348.821503,249.577515 334.099915,249.577515 319.100464,249.577515 
	C319.100464,235.897888 319.100464,222.481827 319.100464,208.715652 
	C333.912048,208.715652 348.638245,208.715652 364.078583,208.715652 
	C364.078583,216.668060 364.078583,224.583221 364.078583,232.997925 
z"/>
<path fill="#F1F2F2" opacity="1.000000" stroke="none" 
	d="
M301.928894,155.656860 
	C303.739105,155.657028 305.056061,155.657028 306.711700,155.657028 
	C306.711700,169.344086 306.711700,182.750336 306.711700,196.554230 
	C292.035217,196.554230 277.197388,196.554230 262.080658,196.554230 
	C262.080658,183.094162 262.080658,169.710403 262.080658,155.656708 
	C275.289337,155.656708 288.362488,155.656708 301.928894,155.656860 
z"/>
<path fill="#F1F2F2" opacity="1.000000" stroke="none" 
	d="
M212.028076,155.656616 
	C224.819519,155.656601 237.112274,155.656601 249.717346,155.656601 
	C249.717346,169.398758 249.717346,182.808243 249.717346,196.584778 
	C234.953583,196.584778 220.105240,196.584778 204.994843,196.584778 
	C204.994843,183.044693 204.994843,169.657532 204.994843,155.656647 
	C207.319336,155.656647 209.424347,155.656647 212.028076,155.656616 
z"/>
<path fill="#F1F2F2" opacity="1.000000" stroke="none" 
	d="
M191.830643,155.801849 
	C192.544342,159.655945 192.943863,163.413925 192.980743,167.175476 
	C193.076538,176.944122 193.012909,186.714340 193.012909,196.713165 
	C177.788712,196.713165 163.066345,196.713165 148.039459,196.713165 
	C148.039459,183.121918 148.039459,169.739502 148.039459,155.707352 
	C162.541733,155.707352 176.946472,155.707352 191.830643,155.801849 
z"/>
<path fill="#F2F2F2" opacity="1.000000" stroke="none" 
	d="
M279.001434,144.051208 
	C273.195526,144.051208 267.889343,144.051208 262.195801,144.051208 
	C262.195801,130.437210 262.195801,117.059433 262.195801,103.256271 
	C276.815399,103.256271 291.649963,103.256271 306.769836,103.256271 
	C306.769836,116.635002 306.769836,130.023209 306.769836,144.051208 
	C297.663483,144.051208 288.582306,144.051208 279.001434,144.051208 
z"/>
</svg>