<?xml version="1.0" encoding="UTF-8"?>
<svg version="1.1" xmlns="http://www.w3.org/2000/svg" width="512" height="512">
<path d="M0 0 C1.01790619 0.00215515 2.03581238 0.0043103 3.08456421 0.00653076 C17.69363523 0.05620146 32.02575853 0.30709809 46.375 3.3125 C47.34985352 3.51117676 48.32470703 3.70985352 49.32910156 3.91455078 C97.7109774 14.03517194 141.69928269 35.9516877 177.375 70.3125 C178.3640332 71.26068604 178.3640332 71.26068604 179.37304688 72.22802734 C188.86130305 81.37247479 197.6012044 90.66984009 205.375 101.3125 C206.23306152 102.46355017 207.09113451 103.61459177 207.94921875 104.765625 C213.98736829 112.95680614 219.34595521 121.47054105 224.375 130.3125 C224.73948242 130.94430176 225.10396484 131.57610352 225.47949219 132.22705078 C247.08534998 169.97532572 256.85198095 212.74189997 256.6875 255.9375 C256.68534485 256.95540619 256.6831897 257.97331238 256.68096924 259.02206421 C256.63129854 273.63113523 256.38040191 287.96325853 253.375 302.3125 C253.07698486 303.77478027 253.07698486 303.77478027 252.77294922 305.26660156 C242.65232806 353.6484774 220.7358123 397.63678269 186.375 433.3125 C185.74287598 433.97185547 185.11075195 434.63121094 184.45947266 435.31054688 C175.31502521 444.79880305 166.01765991 453.5387044 155.375 461.3125 C154.22394983 462.17056152 153.07290823 463.02863451 151.921875 463.88671875 C143.73224019 469.92427396 135.22961724 475.30707302 126.375 480.3125 C125.66778809 480.7146875 124.96057617 481.116875 124.23193359 481.53125 C101.09654164 494.5566741 75.92537591 503.30551461 49.9375 508.625 C49.21860596 508.77235596 48.49971191 508.91971191 47.7590332 509.0715332 C33.08339502 511.86090125 18.55831162 512.66142619 3.64770508 512.62817383 C0.70811513 512.6250221 -2.2304558 512.64854926 -5.16992188 512.67382812 C-18.54306192 512.71848737 -31.43916711 511.51301542 -44.625 509.3125 C-46.33055054 509.03031616 -46.33055054 509.03031616 -48.07055664 508.74243164 C-91.33802759 500.97044532 -132.38793216 480.98345309 -165.625 452.3125 C-166.37007813 451.67828125 -167.11515625 451.0440625 -167.8828125 450.390625 C-181.38779833 438.57948485 -194.05918743 425.82889772 -204.625 411.3125 C-205.48149066 410.16255169 -206.33826433 409.01281411 -207.1953125 407.86328125 C-213.23534209 399.67315742 -218.61867614 391.16870382 -223.625 382.3125 C-224.0271875 381.60528809 -224.429375 380.89807617 -224.84375 380.16943359 C-237.8691741 357.03404164 -246.61801461 331.86287591 -251.9375 305.875 C-252.08485596 305.15610596 -252.23221191 304.43721191 -252.3840332 303.6965332 C-255.35789088 288.05024391 -255.99800362 272.57681954 -255.9375 256.6875 C-255.93534485 255.66959381 -255.9331897 254.65168762 -255.93096924 253.60293579 C-255.88129854 238.99386477 -255.63040191 224.66174147 -252.625 210.3125 C-252.42632324 209.33764648 -252.22764648 208.36279297 -252.02294922 207.35839844 C-241.90232806 158.9765226 -219.9858123 114.98821731 -185.625 79.3125 C-184.99287598 78.65314453 -184.36075195 77.99378906 -183.70947266 77.31445312 C-174.56502521 67.82619695 -165.26765991 59.0862956 -154.625 51.3125 C-153.47394983 50.45443848 -152.32290823 49.59636549 -151.171875 48.73828125 C-142.98224019 42.70072604 -134.47961724 37.31792698 -125.625 32.3125 C-124.91778809 31.9103125 -124.21057617 31.508125 -123.48193359 31.09375 C-100.34654164 18.0683259 -75.17537591 9.31948539 -49.1875 4 C-48.46860596 3.85264404 -47.74971191 3.70528809 -47.0090332 3.5534668 C-31.36274391 0.57960912 -15.88931954 -0.06050362 0 0 Z " fill="#333333" transform="translate(255.625,-0.3125)"/>
<path d="M0 0 C0.9542688 -0.0071553 1.9085376 -0.01431061 2.89172363 -0.02168274 C3.92708755 -0.02437164 4.96245148 -0.02706055 6.02919006 -0.02983093 C7.12909271 -0.03640213 8.22899536 -0.04297333 9.36222839 -0.04974365 C13.00129774 -0.06944709 16.6403258 -0.08113522 20.2794342 -0.09111023 C21.5261194 -0.09518576 22.7728046 -0.09926128 24.05726814 -0.10346031 C29.98076253 -0.12216442 35.90424391 -0.13672962 41.82776064 -0.14507228 C48.6308691 -0.15481537 55.43364965 -0.18106218 62.23664278 -0.22157317 C68.15527826 -0.25558862 74.07383527 -0.26723519 79.99257088 -0.27127647 C82.49579142 -0.27612429 84.99900892 -0.2876862 87.50216484 -0.30631447 C107.70437494 -0.44726503 125.17908265 0.69678132 140.81459045 15.02217102 C152.32028689 27.02309112 155.71772101 40.61182608 155.47084045 56.78388977 C155.02901396 67.30488306 150.40733428 75.85792447 144.12709045 84.14717102 C143.01334045 85.69404602 143.01334045 85.69404602 141.87709045 87.27217102 C131.42679824 98.19747652 117.9394397 102.67227998 103.18959045 103.77851868 C88.54309683 104.89567516 75.93415615 109.48745652 65.83802795 120.68623352 C61.5574339 126.24940257 58.6285129 131.97035893 56.13490295 138.51826477 C55.12709045 141.14717102 55.12709045 141.14717102 53.12709045 145.14717102 C53.12709045 131.28717102 53.12709045 117.42717102 53.12709045 103.14717102 C49.01884827 103.19357727 44.91060608 103.23998352 40.6778717 103.28779602 C37.36627431 103.31358743 34.05470596 103.33525451 30.74306488 103.35417175 C27.26693996 103.37514309 23.79121627 103.40308198 20.31532288 103.44892883 C16.31113693 103.50140288 12.30736425 103.52024253 8.3028717 103.53779602 C6.4676873 103.56876373 6.4676873 103.56876373 4.59542847 103.60035706 C-10.62659485 103.60425366 -23.75458645 98.47590912 -34.9940033 88.19013977 C-46.44361509 75.74076977 -49.4201769 61.94233737 -49.1502533 45.60029602 C-48.90929796 39.89888513 -47.46898875 35.21763821 -44.87290955 30.14717102 C-44.46040955 29.31056946 -44.04790955 28.4739679 -43.62290955 27.61201477 C-36.1302265 13.83995246 -24.39240212 6.0511056 -9.87290955 1.14717102 C-6.52937287 0.37567651 -3.4281806 0.01775237 0 0 Z " fill="#FE7161" transform="translate(202.87290954589844,101.85282897949219)"/>
<path d="M0 0 C1.35762828 0.00373569 2.71525928 0.00658003 4.07289124 0.00857544 C7.62553507 0.01616819 11.17801228 0.03577853 14.73059082 0.0579834 C18.36399034 0.07853637 21.9974179 0.08770727 25.63085938 0.09765625 C32.74493825 0.11796478 39.8585611 0.15712171 46.97265625 0.1953125 C47.30265625 12.7353125 47.63265625 25.2753125 47.97265625 38.1953125 C49.62265625 34.2353125 51.27265625 30.2753125 52.97265625 26.1953125 C60.09116034 13.75635297 70.77082596 5.64064195 84.3984375 1.44921875 C98.84965222 -1.98028393 112.56348866 0.15974474 125.296875 7.54296875 C137.35140753 15.21775602 145.51827955 26.19162452 148.97265625 40.1953125 C149.40473938 43.41720788 149.4981962 46.57195013 149.47265625 49.8203125 C149.46298828 51.12246704 149.46298828 51.12246704 149.453125 52.45092773 C149.02329628 67.82437415 142.70442144 80.03262185 131.59765625 90.5703125 C127.09594114 94.35268138 122.37240311 96.91810296 116.97265625 99.1953125 C115.94785156 99.67484375 115.94785156 99.67484375 114.90234375 100.1640625 C105.08186358 104.19680721 90.92639835 103.42741841 80.97265625 100.1953125 C63.21511028 92.3735363 55.45463735 82.15206714 47.97265625 64.1953125 C47.64265625 76.7353125 47.31265625 89.2753125 46.97265625 102.1953125 C39.23299237 102.27954101 31.49501924 102.35963574 23.7552948 102.40231323 C20.14997447 102.42330674 16.54503941 102.45128867 12.93994141 102.49707031 C9.45801814 102.54100359 5.97646495 102.56454772 2.49428558 102.57482147 C0.54027585 102.58564938 -1.41358805 102.61679685 -3.36737061 102.64849854 C-18.25866921 102.65218517 -30.47515605 97.58778482 -41.33984375 87.3828125 C-51.91729675 76.09154366 -55.69454765 62.78330993 -55.56811523 47.58300781 C-55.04220295 33.43852292 -48.39526774 22.11398941 -38.33984375 12.4453125 C-26.61108483 2.34356129 -14.98878061 -0.11918513 0 0 Z " fill="#A158FE" transform="translate(209.02734375,204.8046875)"/>
<path d="M0 0 C0.97450104 -0.00137466 1.94900208 -0.00274933 2.95303345 -0.00416565 C4.010392 -0.00057037 5.06775055 0.0030249 6.15715027 0.00672913 C7.27954102 0.0065831 8.40193176 0.00643707 9.55833435 0.00628662 C13.26471394 0.00698276 16.97104314 0.01476124 20.67741394 0.02259827 C23.24859591 0.02446351 25.81977824 0.02588691 28.39096069 0.02688599 C34.4646421 0.03031278 40.53830274 0.03819269 46.61197633 0.04823548 C53.52852407 0.05942306 60.44507268 0.06491373 67.36162722 0.06993091 C81.58538873 0.08037602 95.80913507 0.09795896 110.03288269 0.12025452 C110.03288269 0.45025452 110.03288269 0.78025452 110.03288269 1.12025452 C91.22288269 1.12025452 72.41288269 1.12025452 53.03288269 1.12025452 C53.03288269 34.78025452 53.03288269 68.44025452 53.03288269 103.12025452 C38.83257019 103.24400452 38.83257019 103.24400452 24.34538269 103.37025452 C21.3835199 103.40667053 18.4216571 103.44308655 15.37004089 103.48060608 C12.98292258 103.49230493 10.59579619 103.5024939 8.20866394 103.51087952 C7.00125549 103.53134338 5.79384705 103.55180725 4.54985046 103.57289124 C-10.69325832 103.57905069 -23.8311282 98.46515971 -35.08821106 88.16322327 C-46.53782286 75.71385327 -49.51438466 61.91542086 -49.24446106 45.57337952 C-49.00350572 39.87196862 -47.56319651 35.19072171 -44.96711731 30.12025452 C-44.55461731 29.28365295 -44.14211731 28.44705139 -43.71711731 27.58509827 C-36.22443426 13.81303595 -24.48660989 6.0241891 -9.96711731 1.12025452 C-6.58579081 0.33564057 -3.46779341 -0.00378994 0 0 Z " fill="#F04D1E" transform="translate(202.9671173095703,101.87974548339844)"/>
<path d="M0 0 C1.29824707 0.0028299 2.59649414 0.00565979 3.93408203 0.00857544 C7.36012692 0.01615613 10.78599812 0.03575565 14.2119751 0.0579834 C17.71811576 0.07856281 21.2242849 0.08760284 24.73046875 0.09765625 C31.59121649 0.11900774 38.45184987 0.15307514 45.3125 0.1953125 C45.4058903 7.66330711 45.47661032 15.13123987 45.51974869 22.59968853 C45.54047122 26.06903145 45.56850043 29.53796987 45.61425781 33.00708008 C45.66673186 37.01126602 45.68557151 41.0150387 45.703125 45.01953125 C45.72377014 46.24298752 45.74441528 47.46644379 45.76568604 48.72697449 C45.76970887 64.44211777 40.50696798 77.40461598 29.84375 88.83203125 C17.33575214 100.51002308 4.25424245 102.78034505 -12.203125 102.5390625 C-18.83215265 102.26904101 -24.00212378 100.60653823 -29.6875 97.1953125 C-30.87472656 96.52628906 -30.87472656 96.52628906 -32.0859375 95.84375 C-41.11216626 90.32943277 -47.4394922 83.45844335 -52.1875 74.0703125 C-52.52595947 73.4014502 -52.86441895 72.73258789 -53.21313477 72.04345703 C-58.34090347 61.27288617 -58.60640038 45.30498926 -54.91796875 33.9453125 C-47.95758501 18.38940725 -37.43696803 8.6485829 -21.6875 2.1953125 C-14.44523688 -0.12507014 -7.56223846 -0.06248625 0 0 Z " fill="#0ACE82" transform="translate(210.6875,306.8046875)"/>
<path d="M0 0 C8.51234762 7.80931891 14.84350163 19.58773889 15.59375 31.20703125 C15.62808682 32.83951591 15.6378377 34.47267349 15.625 36.10546875 C15.61855469 36.97357178 15.61210937 37.8416748 15.60546875 38.73608398 C15.17564003 54.1095304 8.85676519 66.3177781 -2.25 76.85546875 C-6.75171511 80.63783763 -11.47525314 83.20325921 -16.875 85.48046875 C-17.55820312 85.80015625 -18.24140625 86.11984375 -18.9453125 86.44921875 C-28.76579267 90.48196346 -42.9212579 89.71257466 -52.875 86.48046875 C-68.87416358 79.43321813 -78.41486402 69.39981262 -84.9296875 53.2421875 C-88.94934759 41.49880038 -88.09199891 27.65515159 -82.875 16.48046875 C-75.28444405 1.68314901 -64.67083811 -7.11866529 -48.875 -12.51953125 C-30.85534551 -16.85759622 -14.0312918 -11.37119273 0 0 Z " fill="#1ABBFC" transform="translate(342.875,218.51953125)"/>
<path d="M0 0 C14.85 0 29.7 0 45 0 C45 0.33 45 0.66 45 1 C44.44054687 1.06316406 43.88109375 1.12632812 43.3046875 1.19140625 C30.94789479 3.07869774 18.64663069 9.44399316 11.10546875 19.53515625 C7.64074148 24.7213059 4.9569574 29.95080025 2.82421875 35.80859375 C2 38 2 38 0 42 C0 28.14 0 14.28 0 0 Z " fill="#323435" transform="translate(256,205)"/>
</svg>
