<?xml version="1.0" standalone="no"?>
<!DOCTYPE svg PUBLIC "-//W3C//DTD SVG 20010904//EN"
 "http://www.w3.org/TR/2001/REC-SVG-20010904/DTD/svg10.dtd">
<svg version="1.0" xmlns="http://www.w3.org/2000/svg"
 width="225.000000pt" height="225.000000pt" viewBox="0 0 225.000000 225.000000"
 preserveAspectRatio="xMidYMid meet">

<g transform="translate(0.000000,225.000000) scale(0.100000,-0.100000)"
fill="#F1502F" stroke="none">
<path d="M1065 2231 c-22 -10 -86 -66 -142 -123 l-103 -103 125 -125 125 -125
61 -1 c51 -1 66 -6 97 -31 54 -44 75 -85 74 -147 l0 -53 119 -119 119 -118 59
-1 c103 -1 171 -71 171 -175 0 -120 -116 -199 -233 -161 -72 24 -124 116 -112
198 6 37 5 39 -104 148 l-111 110 0 -301 0 -300 28 -21 c40 -30 66 -88 64
-147 -3 -125 -139 -204 -252 -146 -45 23 -74 60 -89 115 -18 68 16 154 73 185
l26 13 0 307 0 306 -30 22 c-57 42 -88 120 -71 179 9 29 4 35 -118 157 l-126
126 -347 -347 c-376 -378 -384 -388 -359 -464 8 -25 156 -179 533 -556 579
-578 551 -555 639 -515 65 30 1042 1012 1059 1065 24 78 36 64 -518 621 -296
296 -531 524 -549 532 -42 18 -60 17 -108 -5z"/>
</g>
</svg>
