<svg version="1.1" id="Layer_1" xmlns="http://www.w3.org/2000/svg" xmlns:xlink="http://www.w3.org/1999/xlink" x="0px" y="0px"
	 width="100%" viewBox="0 0 920 920" enable-background="new 0 0 920 920" xml:space="preserve">

<path fill="#FFCA01" opacity="1.000000" stroke="none" 
	d="
M753.718994,265.283203 
	C779.069336,267.477356 799.369202,278.746033 816.096619,296.814545 
	C833.770874,315.905792 843.994324,339.005249 850.956177,363.684998 
	C857.529663,386.988068 860.841919,410.684967 860.139709,435.033112 
	C859.486572,457.680054 860.263611,480.364594 859.931335,503.025513 
	C859.546448,529.278809 852.828064,554.233398 842.625977,578.233765 
	C835.564331,594.846313 825.924866,609.870361 812.693420,622.418640 
	C791.781311,642.250977 767.065063,652.904785 738.167053,652.954285 
	C682.492737,653.049561 626.817932,652.850952 571.143372,652.821167 
	C536.990540,652.802917 502.837738,652.872070 468.684906,652.901611 
	C466.916382,652.903137 465.147858,652.901855 463.073853,652.901855 
	C463.073853,662.007996 463.073853,670.670288 463.073853,679.824097 
	C527.268982,679.824097 591.336975,679.824097 655.695862,679.824097 
	C655.843079,681.551453 656.037964,682.820679 656.046814,684.091187 
	C656.254578,714.031677 656.723389,743.973999 656.530945,773.912048 
	C656.410706,792.601135 647.085205,807.159851 633.346497,818.985596 
	C614.745850,834.996399 592.417114,843.281189 568.961426,848.981323 
	C536.821289,856.791992 504.090759,858.978760 471.145782,859.242554 
	C440.701477,859.486389 410.386566,857.964783 380.485352,851.948975 
	C352.789032,846.376709 326.138885,837.911499 303.515808,820.053223 
	C283.199097,804.015686 270.464630,783.681580 270.434326,757.108948 
	C270.366272,697.448853 270.729065,637.788452 270.779755,578.128052 
	C270.799103,555.346375 275.384460,533.898376 288.888794,515.131653 
	C303.123596,495.349854 323.271606,484.455322 346.282745,478.060730 
	C363.692993,473.222626 381.499695,473.445343 399.316315,473.478607 
	C423.448853,473.523651 447.581512,473.487335 471.714142,473.481567 
	C495.872101,473.475769 520.034058,473.732178 544.186646,473.367035 
	C561.952515,473.098480 579.974976,473.706085 597.408203,470.935211 
	C632.135071,465.415619 656.872559,445.692017 670.991028,413.104340 
	C678.638550,395.452484 681.831482,376.934418 681.951782,357.862488 
	C682.134705,328.864716 681.999695,299.864960 681.999695,270.866028 
	C681.999695,269.075073 681.999695,267.284088 681.999695,265.226685 
	C706.045288,265.226685 729.648743,265.226685 753.718994,265.283203 
M596.695740,737.778748 
	C589.628601,731.261963 581.332153,728.382874 571.687866,728.577209 
	C553.605225,728.941589 538.230103,744.321411 538.063782,762.581055 
	C537.892761,781.345276 553.181396,797.607605 571.361145,797.999146 
	C586.143311,798.317444 599.176819,790.253967 604.841919,777.285400 
	C610.636597,764.020264 607.748352,749.273438 596.695740,737.778748 
z"/>
<path fill="#00264F" opacity="1.000000" stroke="none" 
	d="
M623.430725,104.561394 
	C641.083191,118.852371 651.844604,136.719315 654.863342,159.022171 
	C655.063171,160.498169 654.995056,162.014969 654.995178,163.512802 
	C655.000854,224.177917 655.251648,284.844513 654.888000,345.507477 
	C654.720032,373.524597 647.900269,399.540039 626.829041,419.797455 
	C609.958862,436.016083 589.264404,444.561462 566.437622,447.952057 
	C557.285339,449.311523 547.917358,449.676605 538.645569,449.699890 
	C479.480804,449.848511 420.315430,449.808990 361.150360,449.752441 
	C346.134644,449.738068 331.309326,450.860596 316.826996,455.192963 
	C290.817474,462.973633 271.496948,478.819366 258.965637,502.892395 
	C249.369492,521.326965 244.684998,541.128723 244.399353,561.749390 
	C243.954391,593.869751 244.281647,626.000732 244.281647,658.775635 
	C242.530945,658.775635 240.759445,658.775635 238.987946,658.775635 
	C220.155090,658.775635 201.322235,658.769958 182.489380,658.776855 
	C151.346634,658.788330 126.417923,645.836914 106.771133,622.179688 
	C88.862511,600.615540 79.285843,575.160400 73.006104,548.257751 
	C67.817184,526.028198 65.760254,503.421875 64.645340,480.660370 
	C63.406010,455.358795 64.443825,430.175568 68.011391,405.146912 
	C72.921638,370.698578 82.609261,337.870483 105.401024,310.581482 
	C127.249176,284.422333 155.406036,270.710663 189.811829,270.722412 
	C278.159607,270.752594 366.507385,270.802704 454.855164,270.844666 
	C457.509033,270.845917 460.162903,270.844788 463.266479,270.844788 
	C463.266479,261.785919 463.266479,252.909668 463.266479,243.377716 
	C399.079895,243.377716 334.863495,243.377716 270.189819,243.377716 
	C270.189819,212.625000 270.429840,182.518951 270.104828,152.419006 
	C269.890747,132.592575 278.548737,117.295074 292.951385,104.773933 
	C313.363739,87.028214 338.114197,78.635262 363.979797,73.138618 
	C403.507294,64.738724 443.529877,63.173512 483.806488,64.850769 
	C511.073639,65.986267 538.022522,68.978142 564.390381,76.184784 
	C585.665527,81.999550 605.767029,90.360489 623.430725,104.561394 
M330.724945,186.819702 
	C337.565369,192.310760 345.272552,195.178925 354.143616,195.033905 
	C368.530151,194.798691 381.453003,185.452866 386.166107,171.633270 
	C390.798126,158.051468 386.245117,141.859116 375.380005,133.273270 
	C363.940643,124.233658 347.322876,123.088341 335.317871,130.512161 
	C315.334259,142.869888 312.918579,169.138565 330.724945,186.819702 
z"/>
</svg>