<?xml version="1.0" encoding="UTF-8"?>
<svg version="1.1" xmlns="http://www.w3.org/2000/svg" width="288" height="288">
<path d="M0 0 C95.04 0 190.08 0 288 0 C288 95.04 288 190.08 288 288 C192.96 288 97.92 288 0 288 C0 192.96 0 97.92 0 0 Z " fill="#FEFEFE" transform="translate(0,0)"/>
<path d="M0 0 C95.04 0 190.08 0 288 0 C288 95.04 288 190.08 288 288 C192.96 288 97.92 288 0 288 C0 192.96 0 97.92 0 0 Z M4 4 C4 96.4 4 188.8 4 284 C96.4 284 188.8 284 284 284 C284 191.6 284 99.2 284 4 C191.6 4 99.2 4 4 4 Z " fill="#5A5A5A" transform="translate(0,0)"/>
<path d="M0 0 C5.61 0 11.22 0 17 0 C17 5.61 17 11.22 17 17 C14.69 17.33 12.38 17.66 10 18 C9.93941406 18.73605469 9.87882812 19.47210938 9.81640625 20.23046875 C9.69072266 21.69419922 9.69072266 21.69419922 9.5625 23.1875 C9.44068359 24.63189453 9.44068359 24.63189453 9.31640625 26.10546875 C9.02333849 28.78649602 8.57296246 31.3662986 8 34 C7.34 34 6.68 34 6 34 C5.67 38.62 5.34 43.24 5 48 C4.34 48 3.68 48 3 48 C2.87625 48.78375 2.7525 49.5675 2.625 50.375 C2 53 2 53 0 55 C-0.71927295 57.31765729 -1.3909893 59.65095874 -2 62 C-2.66 62 -3.32 62 -4 62 C-3.98839844 62.68707031 -3.97679687 63.37414062 -3.96484375 64.08203125 C-3.95582031 64.98308594 -3.94679688 65.88414063 -3.9375 66.8125 C-3.92589844 67.70582031 -3.91429687 68.59914063 -3.90234375 69.51953125 C-4 72 -4 72 -5 75 C-5.66 75 -6.32 75 -7 75 C-7.0825 75.53625 -7.165 76.0725 -7.25 76.625 C-8.26778692 79.84799192 -10.07837034 82.23059255 -12 85 C-12.53625 85.928125 -13.0725 86.85625 -13.625 87.8125 C-15 90 -15 90 -17 91 C-18.78731924 91.0908238 -20.57805489 91.11753799 -22.36767578 91.11352539 C-23.48868683 91.11344986 -24.60969788 91.11337433 -25.76467896 91.11329651 C-26.97928802 91.10813522 -28.19389709 91.10297394 -29.4453125 91.09765625 C-30.68546112 91.0962413 -31.92560974 91.09482635 -33.20333862 91.09336853 C-36.50118133 91.08871096 -39.79897546 91.07972439 -43.09680176 91.06866455 C-46.46166387 91.05843731 -49.82653308 91.05386809 -53.19140625 91.04882812 C-59.79428993 91.03778269 -66.39714099 91.02103247 -73 91 C-73.07419134 86.78250781 -73.1286204 82.56536189 -73.16479492 78.34741211 C-73.17987589 76.91277448 -73.2003438 75.47818292 -73.22631836 74.04370117 C-73.26273437 71.98084141 -73.27973243 69.91859142 -73.29296875 67.85546875 C-73.3086792 66.61434326 -73.32438965 65.37321777 -73.34057617 64.09448242 C-73 61 -73 61 -71.60668945 59.0715332 C-70 58 -70 58 -68 58 C-68 57.34 -68 56.68 -68 56 C-67.195625 55.731875 -66.39125 55.46375 -65.5625 55.1875 C-64.2940625 54.5996875 -64.2940625 54.5996875 -63 54 C-62.67 53.01 -62.34 52.02 -62 51 C-61.01 51 -60.02 51 -59 51 C-58.67 50.01 -58.34 49.02 -58 48 C-55.78515625 45.95703125 -55.78515625 45.95703125 -53.0625 43.8125 C-52.16660156 43.09707031 -51.27070312 42.38164063 -50.34765625 41.64453125 C-48 40 -48 40 -46 40 C-46 39.34 -46 38.68 -46 38 C-45.34 38 -44.68 38 -44 38 C-44 37.34 -44 36.68 -44 36 C-42.34467377 34.98133771 -40.67739862 33.98189187 -39 33 C-38.505 32.01 -38.505 32.01 -38 31 C-37.01 31 -36.02 31 -35 31 C-35 30.34 -35 29.68 -35 29 C-31.04 28.505 -31.04 28.505 -27 28 C-25 31 -25 31 -25.375 34.1875 C-25.58125 35.115625 -25.7875 36.04375 -26 37 C-26.66 37 -27.32 37 -28 37 C-28.66 39.64 -29.32 42.28 -30 45 C-28.99839844 44.2059375 -27.99679688 43.411875 -26.96484375 42.59375 C-25.62307321 41.56161881 -24.28058708 40.53041742 -22.9375 39.5 C-22.28072266 38.97535156 -21.62394531 38.45070312 -20.94726562 37.91015625 C-16.40267594 34.46253649 -13.70878387 33.34671914 -8 34 C-6.73735399 38.29299643 -7.37049588 40.87831311 -9 45 C-9.66 45 -10.32 45 -11 45 C-11 47.97 -11 50.94 -11 54 C-10.01 53.34 -9.02 52.68 -8 52 C-7.01 52 -6.02 52 -5 52 C-5.04125 51.0925 -5.0825 50.185 -5.125 49.25 C-5.00468444 46.1217954 -4.6085292 44.61385994 -3 42 C-2.34 42 -1.68 42 -1 42 C-0.67 39.36 -0.34 36.72 0 34 C0.66 34 1.32 34 2 34 C2.06058594 33.11957031 2.12117188 32.23914063 2.18359375 31.33203125 C2.30927734 29.58986328 2.30927734 29.58986328 2.4375 27.8125 C2.55931641 26.08966797 2.55931641 26.08966797 2.68359375 24.33203125 C2.95403812 21.48401829 3.37521747 18.78789518 4 16 C3.34 16 2.68 16 2 16 C2 15.34 2 14.68 2 14 C1.34 14 0.68 14 0 14 C-0.97249908 8.7052828 -0.79620728 5.57345093 0 0 Z " fill="#FDD157" transform="translate(171,43)"/>
<path d="M0 0 C0.33 2.64 0.66 5.28 1 8 C6.03697445 8.29629261 8.94183352 8.0710449 13 5 C14.36984198 3.70420353 15.7151049 2.38007251 17 1 C19.83022097 4.99560608 18.76210446 8.42737323 18 13 C18.99 13.33 19.98 13.66 21 14 C21 14.66 21 15.32 21 16 C22.65 16 24.3 16 26 16 C26 18 26 18 23.8125 20.375 C16.71428571 27 16.71428571 27 14 27 C14 27.99 14 28.98 14 30 C9.43373471 35.27974425 3.69354064 40.06032502 -2.8125 42.6875 C-5.77191675 43.90608337 -6.9181182 44.73056128 -9 47 C-3.35832031 47.02470254 2.28332795 47.04286121 7.92504883 47.05493164 C9.84465076 47.05996315 11.76424886 47.06678898 13.68383789 47.07543945 C16.44157864 47.08755669 19.19926876 47.09324011 21.95703125 47.09765625 C23.24623222 47.10539818 23.24623222 47.10539818 24.56147766 47.11329651 C25.36208115 47.11337204 26.16268463 47.11344757 26.98754883 47.11352539 C27.6914827 47.115746 28.39541656 47.11796661 29.12068176 47.12025452 C31.22821656 47.06559534 31.22821656 47.06559534 34 46 C34.33 45.01 34.66 44.02 35 43 C35.33 43.99 35.66 44.98 36 46 C32.76931654 48.89472894 30.70459674 49.36962565 26.40527344 49.34057617 C25.28441345 49.34034958 24.16355347 49.34012299 23.00872803 49.33988953 C21.80444153 49.32440567 20.60015503 49.30892181 19.359375 49.29296875 C18.12205627 49.28872391 16.88473755 49.28447906 15.60992432 49.28010559 C12.32837459 49.26616254 9.04726944 49.23923086 5.76586914 49.20599365 C2.41426693 49.17524594 -0.93735439 49.16184603 -4.2890625 49.14648438 C-10.85954877 49.11339996 -17.42973802 49.06318845 -24 49 C-24.07419134 44.78250781 -24.1286204 40.56536189 -24.16479492 36.34741211 C-24.17987589 34.91277448 -24.2003438 33.47818292 -24.22631836 32.04370117 C-24.26273437 29.98084141 -24.27973243 27.91859142 -24.29296875 25.85546875 C-24.3086792 24.61434326 -24.32438965 23.37321777 -24.34057617 22.09448242 C-24 19 -24 19 -22.60668945 17.0715332 C-21 16 -21 16 -19 16 C-19 15.34 -19 14.68 -19 14 C-18.195625 13.731875 -17.39125 13.46375 -16.5625 13.1875 C-15.716875 12.795625 -14.87125 12.40375 -14 12 C-13.67 11.01 -13.34 10.02 -13 9 C-12.01 9 -11.02 9 -10 9 C-9.67 8.01 -9.34 7.02 -9 6 C-7.44140625 4.39453125 -7.44140625 4.39453125 -5.5625 2.8125 C-4.94503906 2.28269531 -4.32757813 1.75289063 -3.69140625 1.20703125 C-2 0 -2 0 0 0 Z " fill="#FDD35F" transform="translate(122,85)"/>
<path d="M0 0 C5.61 0 11.22 0 17 0 C17 5.61 17 11.22 17 17 C14.69 17.33 12.38 17.66 10 18 C9.90912109 19.10408203 9.90912109 19.10408203 9.81640625 20.23046875 C9.73261719 21.20628906 9.64882812 22.18210937 9.5625 23.1875 C9.48128906 24.15042969 9.40007812 25.11335938 9.31640625 26.10546875 C9.02333849 28.78649602 8.57296246 31.3662986 8 34 C7.34 34 6.68 34 6 34 C5.67 38.62 5.34 43.24 5 48 C4.34 48 3.68 48 3 48 C2.87625 48.78375 2.7525 49.5675 2.625 50.375 C2 53 2 53 0 55 C-0.71927295 57.31765729 -1.3909893 59.65095874 -2 62 C-2.66 62 -3.32 62 -4 62 C-4.33 63.32 -4.66 64.64 -5 66 C-5.66 66 -6.32 66 -7 66 C-7.33 66.99 -7.66 67.98 -8 69 C-11.44444444 72 -11.44444444 72 -14 72 C-14 72.66 -14 73.32 -14 74 C-20.39075249 74.36174071 -20.39075249 74.36174071 -23 72.8125 C-24 71 -24 71 -24.125 68.6875 C-22.66664067 65.20364161 -20.53615196 63.61721638 -17.59375 61.33203125 C-15.86886375 60.07063984 -15.86886375 60.07063984 -15 58 C-14.34 58 -13.68 58 -13 58 C-13 57.01 -13 56.02 -13 55 C-10.11165997 52.89229241 -8.61537605 52 -5 52 C-5.04125 51.0925 -5.0825 50.185 -5.125 49.25 C-5.00468444 46.1217954 -4.6085292 44.61385994 -3 42 C-2.34 42 -1.68 42 -1 42 C-0.67 39.36 -0.34 36.72 0 34 C0.66 34 1.32 34 2 34 C2.06058594 33.11957031 2.12117188 32.23914063 2.18359375 31.33203125 C2.26738281 30.17058594 2.35117188 29.00914063 2.4375 27.8125 C2.55931641 26.08966797 2.55931641 26.08966797 2.68359375 24.33203125 C2.95403812 21.48401829 3.37521747 18.78789518 4 16 C3.34 16 2.68 16 2 16 C2 15.34 2 14.68 2 14 C1.34 14 0.68 14 0 14 C-0.97249908 8.7052828 -0.79620728 5.57345093 0 0 Z " fill="#EC96D9" transform="translate(171,43)"/>
<path d="M0 0 C0.33 2.64 0.66 5.28 1 8 C6.03697445 8.29629261 8.94183352 8.0710449 13 5 C14.36984198 3.70420353 15.7151049 2.38007251 17 1 C18.32168051 3.17688554 19.0131712 4.55217933 18.9375 7.125 C17.58163928 9.83672144 15.80593064 9.93998176 13 11 C10.048139 13.28919833 7.35443209 15.63572257 4.75 18.3125 C3 20 3 20 1 20 C0.67 20.99 0.34 21.98 0 23 C-1.4375 24.6875 -1.4375 24.6875 -3 26 C-3.66 26 -4.32 26 -5 26 C-5 26.66 -5 27.32 -5 28 C-5.804375 28.268125 -6.60875 28.53625 -7.4375 28.8125 C-8.283125 29.204375 -9.12875 29.59625 -10 30 C-10.33 30.99 -10.66 31.98 -11 33 C-12.6396721 34.36639342 -14.31110128 35.6949419 -16 37 C-16.86625 37.886875 -17.7325 38.77375 -18.625 39.6875 C-21 42 -21 42 -24 43 C-24.08696177 39.06263877 -24.14037835 35.12552372 -24.1875 31.1875 C-24.21263672 30.06794922 -24.23777344 28.94839844 -24.26367188 27.79492188 C-24.27333984 26.72177734 -24.28300781 25.64863281 -24.29296875 24.54296875 C-24.3086792 23.55321045 -24.32438965 22.56345215 -24.34057617 21.54370117 C-24 19 -24 19 -22.60668945 17.15356445 C-21 16 -21 16 -19 16 C-19 15.34 -19 14.68 -19 14 C-18.195625 13.731875 -17.39125 13.46375 -16.5625 13.1875 C-15.716875 12.795625 -14.87125 12.40375 -14 12 C-13.67 11.01 -13.34 10.02 -13 9 C-12.01 9 -11.02 9 -10 9 C-9.67 8.01 -9.34 7.02 -9 6 C-7.44140625 4.39453125 -7.44140625 4.39453125 -5.5625 2.8125 C-4.94503906 2.28269531 -4.32757813 1.75289063 -3.69140625 1.20703125 C-2 0 -2 0 0 0 Z " fill="#FCC639" transform="translate(122,85)"/>
<path d="M0 0 C2 3 2 3 1.625 6.1875 C1.315625 7.5796875 1.315625 7.5796875 1 9 C0.34 9 -0.32 9 -1 9 C-1.66 11.64 -2.32 14.28 -3 17 C-1.99839844 16.2059375 -0.99679688 15.411875 0.03515625 14.59375 C1.37692679 13.56161881 2.71941292 12.53041742 4.0625 11.5 C5.04766602 10.71302734 5.04766602 10.71302734 6.05273438 9.91015625 C10.59732406 6.46253649 13.29121613 5.34671914 19 6 C20.26264601 10.29299643 19.62950412 12.87831311 18 17 C17.34 17 16.68 17 16 17 C15.505 18.485 15.505 18.485 15 20 C13.36739286 21.37482707 11.69774938 22.70647667 10 24 C9.443125 24.5775 8.88625 25.155 8.3125 25.75 C7 27 7 27 5 27 C5 27.66 5 28.32 5 29 C1.44069018 29.32357362 -0.41791735 29.3880551 -3.4375 27.375 C-5 25 -5 25 -4.6875 21.9375 C-4.460625 20.968125 -4.23375 19.99875 -4 19 C-4.33 18.01 -4.66 17.02 -5 16 C-6.3921875 17.175625 -6.3921875 17.175625 -7.8125 18.375 C-12.32396931 22.1846852 -14.9548471 23.33584183 -21 23 C-22 22 -22 22 -22.09765625 19.93359375 C-22.08605469 19.10988281 -22.07445313 18.28617188 -22.0625 17.4375 C-22.05347656 16.61121094 -22.04445313 15.78492187 -22.03515625 14.93359375 C-22.02355469 14.29550781 -22.01195313 13.65742187 -22 13 C-21.01 12.67 -20.02 12.34 -19 12 C-19 11.34 -19 10.68 -19 10 C-18.34 10 -17.68 10 -17 10 C-17 9.34 -17 8.68 -17 8 C-15.34467377 6.98133771 -13.67739862 5.98189187 -12 5 C-11.67 4.34 -11.34 3.68 -11 3 C-10.01 3 -9.02 3 -8 3 C-8 2.34 -8 1.68 -8 1 C-5.01726077 0.00575359 -3.10494126 -0.31845551 0 0 Z " fill="#E7AFE3" transform="translate(144,71)"/>
<path d="M0 0 C4.9626136 0.53340952 8.35341426 2.84398538 12.4375 5.5 C13.13109619 5.9427124 13.82469238 6.3854248 14.53930664 6.84155273 C15.97892482 7.7618678 17.41632872 8.68565526 18.8515625 9.61279297 C20.93758773 10.95970153 23.03006738 12.29590465 25.125 13.62890625 C34.79985641 19.79985641 34.79985641 19.79985641 36 21 C36.6015625 24.1953125 36.6015625 24.1953125 36 28 C33.47086566 30.51963227 30.47289417 32.13507478 27.375 33.875 C25.63219936 34.90651686 23.89001716 35.93907926 22.1484375 36.97265625 C21.27928711 37.47812988 20.41013672 37.98360352 19.51464844 38.50439453 C17.20390434 39.87872641 14.95996625 41.31273511 12.7265625 42.80859375 C12.09186035 43.23350098 11.4571582 43.6584082 10.80322266 44.09619141 C9.09737332 45.24681981 7.39240964 46.39876094 5.6875 47.55078125 C4.800625 48.02902344 3.91375 48.50726563 3 49 C2.01 48.67 1.02 48.34 0 48 C-0.6875 45.9375 -0.6875 45.9375 -1 44 C1.56123561 42.33136267 4.12369255 40.66467931 6.6875 39 C7.45320312 38.50250244 8.21890625 38.00500488 9.0078125 37.49243164 C14.82218204 33.7284497 20.7049458 30.10138746 26.65625 26.55859375 C29.10053208 25.21322018 29.10053208 25.21322018 30 23 C29.26499268 22.72454346 28.52998535 22.44908691 27.77270508 22.1652832 C25.18752893 21.07881268 22.9929995 19.86461864 20.63671875 18.35546875 C19.42918945 17.58686523 19.42918945 17.58686523 18.19726562 16.80273438 C16.95493164 16.00319336 16.95493164 16.00319336 15.6875 15.1875 C14.04567266 14.13916668 12.40374653 13.09098808 10.76171875 12.04296875 C9.96942871 11.53556152 9.17713867 11.0281543 8.36083984 10.50537109 C4.92215929 8.31272329 1.46214447 6.15537417 -2 4 C-1.34 2.68 -0.68 1.36 0 0 Z " fill="#525252" transform="translate(205,76)"/>
<path d="M0 0 C0.58910156 0.28101562 1.17820313 0.56203125 1.78515625 0.8515625 C2.28015625 2.3365625 2.28015625 2.3365625 2.78515625 3.8515625 C-13.50247955 14.46290846 -13.50247955 14.46290846 -21.65234375 19.5390625 C-22.68230469 20.18230469 -23.71226563 20.82554688 -24.7734375 21.48828125 C-27.21484375 22.8515625 -27.21484375 22.8515625 -29.21484375 22.8515625 C-29.21484375 23.5115625 -29.21484375 24.1715625 -29.21484375 24.8515625 C-28.23064453 25.18414062 -28.23064453 25.18414062 -27.2265625 25.5234375 C-23.19755384 27.30017284 -19.68903994 29.6710899 -16.02734375 32.1015625 C-9.8372931 36.1628899 -3.6143754 40.1250539 2.78515625 43.8515625 C1.03515625 47.7265625 1.03515625 47.7265625 -1.21484375 48.8515625 C-3.50219727 47.68334961 -3.50219727 47.68334961 -6.34375 45.87890625 C-7.37951172 45.22599609 -8.41527344 44.57308594 -9.48242188 43.90039062 C-10.56974609 43.20365234 -11.65707031 42.50691406 -12.77734375 41.7890625 C-13.83759766 41.11939453 -14.89785156 40.44972656 -15.99023438 39.75976562 C-18.0863513 38.43175077 -20.17459504 37.09121962 -22.25439453 35.73779297 C-24.1369186 34.53835532 -26.05038277 33.38522536 -27.99951172 32.29736328 C-33.6720088 29.01609317 -33.6720088 29.01609317 -35.10888672 25.93359375 C-35.45332301 23.43120737 -35.28603964 22.14730562 -34.21484375 19.8515625 C-31.28583442 17.05722027 -27.93754076 15.22632786 -24.40234375 13.2890625 C-22.46964217 12.17128137 -20.5373466 11.05279793 -18.60546875 9.93359375 C-17.67283203 9.40588379 -16.74019531 8.87817383 -15.77929688 8.33447266 C-11.8020152 6.03458605 -8.04890626 3.44429547 -4.2734375 0.828125 C-2.21484375 -0.1484375 -2.21484375 -0.1484375 0 0 Z " fill="#515151" transform="translate(69.21484375,77.1484375)"/>
<path d="M0 0 C0.99 0 1.98 0 3 0 C2.54177532 3.46941546 2.10868317 6.67395049 1 10 C0.34 10 -0.32 10 -1 10 C-1.33 10.99 -1.66 11.98 -2 13 C-2.66 13 -3.32 13 -4 13 C-4.33 13.99 -4.66 14.98 -5 16 C-6.671875 17.39453125 -6.671875 17.39453125 -8.75 18.8125 C-11.44997624 20.75069723 -13.67889238 22.58567105 -15.75 25.1875 C-17.71733377 27.64666721 -19.3426413 29.35060494 -22 31 C-22.66 31 -23.32 31 -24 31 C-24.33 31.99 -24.66 32.98 -25 34 C-28.58996203 37.7252979 -32.47496772 41.50758168 -37.6640625 42.51953125 C-40.125 42.5 -40.125 42.5 -44 42 C-44.33 41.34 -44.66 40.68 -45 40 C-41.48620074 37.34672301 -38.50718884 35.21355319 -34.4375 33.5 C-29.44224127 31.32025074 -26.06042511 28.59063766 -23 24 C-22.34 24 -21.68 24 -21 24 C-21 23.01 -21 22.02 -21 21 C-19.01399663 19.6459068 -17.01182457 18.31542376 -15 17 C-13.64843325 15.34808509 -12.31037934 13.68477344 -11 12 C-10.34 12 -9.68 12 -9 12 C-9 11.34 -9 10.68 -9 10 C-10.65 10 -12.3 10 -14 10 C-14 9.67 -14 9.34 -14 9 C-12.02 9 -10.04 9 -8 9 C-8 8.34 -8 7.68 -8 7 C-7.360625 6.896875 -6.72125 6.79375 -6.0625 6.6875 C-5.0415625 6.3471875 -5.0415625 6.3471875 -4 6 C-3.67 5.01 -3.34 4.02 -3 3 C-2.34 3 -1.68 3 -1 3 C-0.67 2.01 -0.34 1.02 0 0 Z " fill="#D08A21" transform="translate(157,91)"/>
<path d="M0 0 C2.31 0 4.62 0 7 0 C7 5.61 7 11.22 7 17 C4.69 17.33 2.38 17.66 0 18 C-0.09087891 19.10408203 -0.09087891 19.10408203 -0.18359375 20.23046875 C-0.26738281 21.20628906 -0.35117188 22.18210937 -0.4375 23.1875 C-0.51871094 24.15042969 -0.59992188 25.11335938 -0.68359375 26.10546875 C-0.97666151 28.78649602 -1.42703754 31.3662986 -2 34 C-2.66 34 -3.32 34 -4 34 C-4.33 38.62 -4.66 43.24 -5 48 C-5.66 48 -6.32 48 -7 48 C-7.12375 48.78375 -7.2475 49.5675 -7.375 50.375 C-8 53 -8 53 -10 55 C-10.71927295 57.31765729 -11.3909893 59.65095874 -12 62 C-12.66 62 -13.32 62 -14 62 C-14.33 63.32 -14.66 64.64 -15 66 C-15.66 66 -16.32 66 -17 66 C-17.33 66.99 -17.66 67.98 -18 69 C-19.5234375 70.203125 -19.5234375 70.203125 -21.375 71.25 C-21.98085937 71.60578125 -22.58671875 71.9615625 -23.2109375 72.328125 C-25 73 -25 73 -28 72 C-26.1875 70 -26.1875 70 -24 68 C-23.01 68 -22.02 68 -21 68 C-20.9071875 67.1028125 -20.9071875 67.1028125 -20.8125 66.1875 C-20 64 -20 64 -17.5 62.625 C-14.6596437 61.19470987 -14.6596437 61.19470987 -14.3125 57.875 C-14.209375 56.92625 -14.10625 55.9775 -14 55 C-13.01 54.505 -13.01 54.505 -12 54 C-11.855625 52.948125 -11.71125 51.89625 -11.5625 50.8125 C-10.98556867 46.90218765 -9.74942529 44.49885059 -8 41 C-7.2863276 37.26228166 -7.2863276 37.26228166 -7 34 C-6.34 34 -5.68 34 -5 34 C-4.95101562 33.27554688 -4.90203125 32.55109375 -4.8515625 31.8046875 C-4.77679688 30.83789062 -4.70203125 29.87109375 -4.625 28.875 C-4.55539063 27.92367187 -4.48578125 26.97234375 -4.4140625 25.9921875 C-4 23 -4 23 -3.03125 20.1875 C-1.73667864 16.1860976 -1.30607474 12.29441137 -0.875 8.125 C-0.78863281 7.34125 -0.70226562 6.5575 -0.61328125 5.75 C-0.4029851 3.83396841 -0.20067256 1.9170634 0 0 Z " fill="#9F6D8D" transform="translate(181,43)"/>
<path d="M0 0 C1.65 0.33 3.3 0.66 5 1 C5 8.92 5 16.84 5 25 C3.35 24.67 1.7 24.34 0 24 C-0.33 24.33 -0.66 24.66 -1 25 C-6.38297872 25.46808511 -6.38297872 25.46808511 -8.8125 23.625 C-11.47168544 19.98611466 -11.59349107 16.37177225 -11 12 C-9.375 9 -9.375 9 -7 7 C-3.75 6.6875 -3.75 6.6875 -1 7 C-0.67 4.69 -0.34 2.38 0 0 Z " fill="#5F5F5F" transform="translate(116,199)"/>
<path d="M0 0 C3.96 0 7.92 0 12 0 C15.25210427 3.25210427 15.43098482 3.58801374 15.4375 7.875 C15.32388416 11.40741969 15.0316572 12.94137556 13.3125 16.125 C11 18 11 18 8.3125 18.375 C6 18 6 18 5 17 C4.67 19.31 4.34 21.62 4 24 C2.68 24 1.36 24 0 24 C0 16.08 0 8.16 0 0 Z " fill="#525252" transform="translate(95,239)"/>
<path d="M0 0 C0.99 0.33 1.98 0.66 3 1 C3 1.66 3 2.32 3 3 C4.65 3 6.3 3 8 3 C8 5 8 5 5.8125 7.375 C-1.28571429 14 -1.28571429 14 -4 14 C-4 14.99 -4 15.98 -4 17 C-8.5565278 22.26848527 -14.28269671 27.0848651 -20.8125 29.625 C-24.06024823 30.68211021 -24.06024823 30.68211021 -25.375 33.0703125 C-27 35 -27 35 -29.48046875 35.390625 C-30.37378906 35.34421875 -31.26710938 35.2978125 -32.1875 35.25 C-33.08855469 35.21390625 -33.98960938 35.1778125 -34.91796875 35.140625 C-35.60503906 35.09421875 -36.29210937 35.0478125 -37 35 C-37 34.34 -37 33.68 -37 33 C-35.02 32.34 -33.04 31.68 -31 31 C-31 30.34 -31 29.68 -31 29 C-29.906875 28.525625 -28.81375 28.05125 -27.6875 27.5625 C-21.77386984 24.61091822 -16.97847758 20.29104245 -12 16 C-11.21625 15.32839844 -10.4325 14.65679687 -9.625 13.96484375 C-7.73307013 12.32679418 -5.85050978 10.6846622 -4 9 C-3.17048828 8.25943359 -3.17048828 8.25943359 -2.32421875 7.50390625 C-0.34050432 5.25101523 -0.32361013 2.91249113 0 0 Z " fill="#F8BF32" transform="translate(140,98)"/>
<path d="M0 0 C0.27694205 1.74593903 0.52057383 3.49718408 0.75 5.25 C0.88921875 6.22453125 1.0284375 7.1990625 1.171875 8.203125 C1 11 1 11 -0.640625 13.16796875 C-3.16089109 15.12493034 -5.66410963 16.60170482 -8.5 18.0625 C-11.23770973 19.48024254 -13.76139527 20.81894606 -16.21875 22.68359375 C-18 24 -18 24 -20 24 C-20 24.66 -20 25.32 -20 26 C-21.98 26.99 -21.98 26.99 -24 28 C-24.08131463 26.56344146 -24.13933559 25.1255517 -24.1875 23.6875 C-24.22230469 22.88699219 -24.25710937 22.08648437 -24.29296875 21.26171875 C-24 19 -24 19 -22.61328125 17.20703125 C-21 16 -21 16 -19 16 C-19 15.34 -19 14.68 -19 14 C-18.195625 13.731875 -17.39125 13.46375 -16.5625 13.1875 C-15.716875 12.795625 -14.87125 12.40375 -14 12 C-13.67 11.01 -13.34 10.02 -13 9 C-12.01 9 -11.02 9 -10 9 C-9.67 8.01 -9.34 7.02 -9 6 C-7.44140625 4.39453125 -7.44140625 4.39453125 -5.5625 2.8125 C-4.94503906 2.28269531 -4.32757813 1.75289063 -3.69140625 1.20703125 C-2 0 -2 0 0 0 Z " fill="#FDD360" transform="translate(122,85)"/>
<path d="M0 0 C2.475 0.495 2.475 0.495 5 1 C5.33 0.67 5.66 0.34 6 0 C7.99952758 -0.04346799 10.00039988 -0.039992 12 0 C14.02126284 0 16.04291874 -0.04256811 18.0625 -0.125 C21 0 21 0 23 2 C23.14497985 4.58064129 23.18677545 7.04943884 23.125 9.625 C23.11597656 10.33140625 23.10695313 11.0378125 23.09765625 11.765625 C23.07407603 13.51056098 23.03820461 15.25532295 23 17 C21.68 17 20.36 17 19 17 C19 12.38 19 7.76 19 3 C17.68 3.33 16.36 3.66 15 4 C14.67 8.29 14.34 12.58 14 17 C12.68 17 11.36 17 10 17 C9.67 12.71 9.34 8.42 9 4 C8.01 4 7.02 4 6 4 C5.67 8.29 5.34 12.58 5 17 C3.35 17 1.7 17 0 17 C0 11.39 0 5.78 0 0 Z " fill="#545454" transform="translate(67,239)"/>
<path d="M0 0 C1.90625 0.40625 1.90625 0.40625 4.40625 1.84375 C6.64689073 5.67151124 6.7902596 9.08613354 5.90625 13.40625 C3.4485181 16.94827539 2.09300879 18.1882739 -2.15625 18.96875 C-5.71109581 18.28803485 -6.870796 17.20552541 -9.09375 14.40625 C-10.64399464 11.30576072 -10.38367015 8.82730782 -10.09375 5.40625 C-7.62971708 0.5808522 -5.16294366 -0.3852943 0 0 Z " fill="#575757" transform="translate(57.09375,238.59375)"/>
<path d="M0 0 C2.66396012 0.62436565 4.05916427 1.54065499 6 3.46875 C6.83358847 6.86059272 6.62680925 10.04582645 6 13.46875 C3.57652227 17.03268783 2.18884636 18.19630604 -2 19.15625 C-5.43469938 18.36913139 -7.00706791 17.09719888 -9.08203125 14.25 C-10.67808702 11.15297264 -10.55354193 8.85150623 -10 5.46875 C-7.49662283 0.56630305 -5.15254856 -0.08050857 0 0 Z " fill="#565656" transform="translate(123,238.53125)"/>
<path d="M0 0 C0.33 0.66 0.66 1.32 1 2 C0.67 2.66 0.34 3.32 0 4 C-0.66 4 -1.32 4 -2 4 C-2 5.32 -2 6.64 -2 8 C-1.01 8 -0.02 8 1 8 C0.67 9.32 0.34 10.64 0 12 C-0.66 12 -1.32 12 -2 12 C-1.87625 12.9075 -1.7525 13.815 -1.625 14.75 C-1.74875 15.8225 -1.8725 16.895 -2 18 C-4.9375 20.1875 -4.9375 20.1875 -8 22 C-8.33 22.99 -8.66 23.98 -9 25 C-9.99 25 -10.98 25 -12 25 C-13.01111093 28.04913228 -13.01111093 28.04913228 -12 31 C-18.39075249 31.36174071 -18.39075249 31.36174071 -21 29.8125 C-22 28 -22 28 -22.125 25.6875 C-20.66664067 22.20364161 -18.53615196 20.61721638 -15.59375 18.33203125 C-13.86886375 17.07063984 -13.86886375 17.07063984 -13 15 C-12.34 15 -11.68 15 -11 15 C-11 14.01 -11 13.02 -11 12 C-8.11165997 9.89229241 -6.61537605 9 -3 9 C-3.061875 8.071875 -3.12375 7.14375 -3.1875 6.1875 C-3 3 -3 3 -1.5 1.125 C-1.005 0.75375 -0.51 0.3825 0 0 Z " fill="#DD90D0" transform="translate(169,86)"/>
<path d="M0 0 C2 3 2 3 1.625 6.1875 C1.315625 7.5796875 1.315625 7.5796875 1 9 C0.34 7.68 -0.32 6.36 -1 5 C-1.99 6.485 -1.99 6.485 -3 8 C-3.66 8 -4.32 8 -5 8 C-5.35771484 9.14275391 -5.35771484 9.14275391 -5.72265625 10.30859375 C-7.21780613 13.45892483 -8.47050542 14.31348349 -11.4375 16.0625 C-14.75288628 18.03425362 -16.84613374 19.77958903 -19 23 C-19.99 22.67 -20.98 22.34 -22 22 C-22 19.03 -22 16.06 -22 13 C-21.01 12.67 -20.02 12.34 -19 12 C-19 11.34 -19 10.68 -19 10 C-18.34 10 -17.68 10 -17 10 C-17 9.34 -17 8.68 -17 8 C-15.34467377 6.98133771 -13.67739862 5.98189187 -12 5 C-11.67 4.34 -11.34 3.68 -11 3 C-10.01 3 -9.02 3 -8 3 C-8 2.34 -8 1.68 -8 1 C-5.01726077 0.00575359 -3.10494126 -0.31845551 0 0 Z " fill="#DFB1D8" transform="translate(144,71)"/>
<path d="M0 0 C3.9375 0.5 3.9375 0.5 5.9375 1.5625 C7.46440415 4.52087678 7.12218872 7.23716599 6.9375 10.5 C3.6375 10.5 0.3375 10.5 -3.0625 10.5 C-2.7325 11.49 -2.4025 12.48 -2.0625 13.5 C0.5775 13.5 3.2175 13.5 5.9375 13.5 C6.2675 14.49 6.5975 15.48 6.9375 16.5 C3.52209721 18.60178633 0.91498585 19.06821226 -3.0625 18.5 C-5.91522289 16.51549712 -7.70517017 15.0411791 -8.51171875 11.5625 C-8.71059664 7.94155081 -8.19957127 5.77414253 -6.5625 2.5 C-3.93189611 0.39551688 -3.21624106 0.1421543 0 0 Z " fill="#5C5C5C" transform="translate(159.0625,238.5)"/>
<path d="M0 0 C1.32168051 2.17688554 2.0131712 3.55217933 1.9375 6.125 C0.58163928 8.83672144 -1.19406936 8.93998176 -4 10 C-6.951861 12.28919833 -9.64556791 14.63572257 -12.25 17.3125 C-14 19 -14 19 -16 19 C-16.33 19.99 -16.66 20.98 -17 22 C-18.4375 23.6875 -18.4375 23.6875 -20 25 C-20.66 25 -21.32 25 -22 25 C-22 25.66 -22 26.32 -22 27 C-22.804375 27.268125 -23.60875 27.53625 -24.4375 27.8125 C-25.283125 28.204375 -26.12875 28.59625 -27 29 C-27.33 29.99 -27.66 30.98 -28 32 C-29.6396721 33.36639342 -31.31110128 34.6949419 -33 36 C-33.86625 36.886875 -34.7325 37.77375 -35.625 38.6875 C-38 41 -38 41 -41 42 C-41 39.875 -41 39.875 -40 37 C-33.60655738 31 -33.60655738 31 -30 31 C-29.67 30.01 -29.34 29.02 -29 28 C-28.34 28 -27.68 28 -27 28 C-26.67 27.01 -26.34 26.02 -26 25 C-25.34 25 -24.68 25 -24 25 C-23.67 24.01 -23.34 23.02 -23 22 C-21.56098843 20.75721728 -20.11635399 19.519304 -18.625 18.33984375 C-16.73958342 16.83392298 -16.73958342 16.83392298 -14.25 14.1875 C-12 12 -12 12 -10 12 C-10 11.01 -10 10.02 -10 9 C-11.32 8.67 -12.64 8.34 -14 8 C-13.0925 7.71125 -12.185 7.4225 -11.25 7.125 C-6.38082676 5.43951696 -3.54173877 3.79472011 0 0 Z " fill="#DB9113" transform="translate(139,86)"/>
<path d="M0 0 C3.64443151 0.69786986 4.84639337 1.50626723 6.9375 4.5625 C7.1875 7.8125 7.1875 7.8125 6.9375 10.5625 C3.6375 10.5625 0.3375 10.5625 -3.0625 10.5625 C-2.7325 11.8825 -2.4025 13.2025 -2.0625 14.5625 C0.5775 14.5625 3.2175 14.5625 5.9375 14.5625 C5.9375 15.5525 5.9375 16.5425 5.9375 17.5625 C2.88056678 19.09096661 0.30765453 18.79492445 -3.0625 18.5625 C-6.2475357 16.80234869 -6.89546972 16.06359084 -8.0625 12.5625 C-8.55070347 8.16866873 -8.565512 6.25784012 -5.9375 2.625 C-3.0625 0.5625 -3.0625 0.5625 0 0 Z " fill="#525252" transform="translate(95.0625,205.4375)"/>
<path d="M0 0 C0.33 0 0.66 0 1 0 C1.125 7.625 1.125 7.625 0 11 C-0.66 11 -1.32 11 -2 11 C-2.0825 11.53625 -2.165 12.0725 -2.25 12.625 C-4.12508125 18.56275728 -8.05727506 22.49890317 -13 26 C-14.32 26 -15.64 26 -17 26 C-15.125 21.125 -15.125 21.125 -14 20 C-13.76924918 18.65252916 -13.58846937 17.29622435 -13.4375 15.9375 C-13.2209375 13.9884375 -13.2209375 13.9884375 -13 12 C-13.99 11.34 -14.98 10.68 -16 10 C-13.69 10 -11.38 10 -9 10 C-9 9.34 -9 8.68 -9 8 C-7.01310269 6.64721885 -5.01254782 5.31431695 -3 4 C-2.67 3.34 -2.34 2.68 -2 2 C-1.34 2 -0.68 2 0 2 C0 1.34 0 0.68 0 0 Z " fill="#F4BA2E" transform="translate(166,107)"/>
<path d="M0 0 C2.475 0.495 2.475 0.495 5 1 C5.33 0.67 5.66 0.34 6 0 C9.4375 -0.25 9.4375 -0.25 13 0 C15.49118953 3.7367843 15.2065226 5.74451819 15.125 10.1875 C15.10695312 11.45980469 15.08890625 12.73210937 15.0703125 14.04296875 C15.03550781 15.50669922 15.03550781 15.50669922 15 17 C13.35 17 11.7 17 10 17 C10 12.38 10 7.76 10 3 C8.68 3.33 7.36 3.66 6 4 C5.67 8.29 5.34 12.58 5 17 C3.35 17 1.7 17 0 17 C0 11.39 0 5.78 0 0 Z " fill="#656565" transform="translate(133,239)"/>
<path d="M0 0 C2.475 0.495 2.475 0.495 5 1 C5.66 4.63 6.32 8.26 7 12 C7.66 12 8.32 12 9 12 C9.66 8.37 10.32 4.74 11 1 C12.65 0.67 14.3 0.34 16 0 C11.47599876 19.94673273 11.47599876 19.94673273 6.4375 24.125 C4 25 4 25 1 25 C1.3125 23.0625 1.3125 23.0625 2 21 C2.99 20.67 3.98 20.34 5 20 C4.80664062 19.39414063 4.61328125 18.78828125 4.4140625 18.1640625 C2.54867496 12.16157783 1.11840293 6.1841103 0 0 Z " fill="#5D5D5D" transform="translate(60,206)"/>
<path d="M0 0 C2.475 0.495 2.475 0.495 5 1 C5.33 0.67 5.66 0.34 6 0 C8.9375 -0.1875 8.9375 -0.1875 12 0 C14 2 14 2 14.1953125 5.4765625 C14.18201493 6.85950968 14.15816232 8.24238654 14.125 9.625 C14.11597656 10.33140625 14.10695312 11.0378125 14.09765625 11.765625 C14.07407603 13.51056098 14.03820461 15.25532295 14 17 C12.68 17 11.36 17 10 17 C10 12.38 10 7.76 10 3 C8.68 3.33 7.36 3.66 6 4 C5.67 8.29 5.34 12.58 5 17 C3.35 17 1.7 17 0 17 C0 11.39 0 5.78 0 0 Z " fill="#606060" transform="translate(170,239)"/>
<path d="M0 0 C0.70125 0.01417969 1.4025 0.02835938 2.125 0.04296875 C3.176875 0.05263672 3.176875 0.05263672 4.25 0.0625 C6.125 0.23046875 6.125 0.23046875 8.125 1.23046875 C7.795 2.22046875 7.465 3.21046875 7.125 4.23046875 C4.815 3.90046875 2.505 3.57046875 0.125 3.23046875 C0.455 4.22046875 0.785 5.21046875 1.125 6.23046875 C2.28 6.68421875 3.435 7.13796875 4.625 7.60546875 C8.125 9.23046875 8.125 9.23046875 9.25 11.73046875 C9.125 14.23046875 9.125 14.23046875 7.8125 15.98046875 C4.5178813 18.42092705 2.19396808 18.47958924 -1.875 18.23046875 C-2.865 17.57046875 -3.855 16.91046875 -4.875 16.23046875 C-4.545 15.24046875 -4.215 14.25046875 -3.875 13.23046875 C-1.565 13.56046875 0.745 13.89046875 3.125 14.23046875 C3.455 13.24046875 3.785 12.25046875 4.125 11.23046875 C3.01125 10.94171875 1.8975 10.65296875 0.75 10.35546875 C-2.875 9.23046875 -2.875 9.23046875 -4.875 7.23046875 C-4.51756259 3.65609462 -4.11108226 0.50532053 0 0 Z " fill="#5B5B5B" transform="translate(204.875,238.76953125)"/>
<path d="M0 0 C1.32 0 2.64 0 4 0 C4 1.32 4 2.64 4 4 C5.32 4 6.64 4 8 4 C7.67 5.32 7.34 6.64 7 8 C6.01 8 5.02 8 4 8 C4 11.63 4 15.26 4 19 C5.65 19.33 7.3 19.66 9 20 C8.67 20.66 8.34 21.32 8 22 C5.1875 22.25 5.1875 22.25 2 22 C-0.1805039 19.8194961 -0.94282713 18.50312129 -1.29296875 15.421875 C-1.25816406 14.54015625 -1.22335938 13.6584375 -1.1875 12.75 C-1.16042969 11.85796875 -1.13335937 10.9659375 -1.10546875 10.046875 C-1.07066406 9.37140625 -1.03585938 8.6959375 -1 8 C-1.66 8 -2.32 8 -3 8 C-3 6.68 -3 5.36 -3 4 C-2.34 4 -1.68 4 -1 4 C-0.67 2.68 -0.34 1.36 0 0 Z " fill="#636363" transform="translate(51,202)"/>
<path d="M0 0 C0.80824219 0.11085937 1.61648437 0.22171875 2.44921875 0.3359375 C3.37154297 0.47902344 3.37154297 0.47902344 4.3125 0.625 C3.9825 1.615 3.6525 2.605 3.3125 3.625 C1.0025 3.295 -1.3075 2.965 -3.6875 2.625 C-3.3575 3.615 -3.0275 4.605 -2.6875 5.625 C-1.5325 6.07875 -0.3775 6.5325 0.8125 7 C4.3125 8.625 4.3125 8.625 5.5 11.0625 C5.3125 13.625 5.3125 13.625 3.8125 15.9375 C0.43786061 18.21538159 -1.6948782 18.13315187 -5.6875 17.625 C-7.625 16.125 -7.625 16.125 -8.6875 14.625 C-5.36215243 13.51655081 -3.06567425 13.78045644 0.3125 14.625 C0.3125 13.305 0.3125 11.985 0.3125 10.625 C-0.450625 10.50125 -1.21375 10.3775 -2 10.25 C-4.6875 9.625 -4.6875 9.625 -7.6875 7.625 C-8.0625 4.625 -8.0625 4.625 -7.6875 1.625 C-4.33422361 -0.61051759 -3.78006343 -0.54783528 0 0 Z " fill="#545454" transform="translate(41.6875,206.375)"/>
<path d="M0 0 C2.97 0.495 2.97 0.495 6 1 C6 1.99 6 2.98 6 4 C2.66666667 7 2.66666667 7 0 7 C-0.33 7.99 -0.66 8.98 -1 10 C-2.47056056 11.2418067 -3.94491317 12.47998473 -5.453125 13.67578125 C-7.62018236 15.53091369 -9.22858112 17.77144077 -11 20 C-14.30874855 22.86162036 -17.86240697 25.35431438 -21.44921875 27.8515625 C-23.15141425 29.05312727 -23.15141425 29.05312727 -25 31 C-24.49396008 28.83125748 -24.00016187 27.00032373 -23 25 C-22.34 25 -21.68 25 -21 25 C-20.76667969 24.41734375 -20.53335938 23.8346875 -20.29296875 23.234375 C-18.69380901 20.47087236 -16.87281205 19.14768917 -14.3125 17.25 C-8.36571087 12.62854448 -2.11602515 7.52364498 0 0 Z " fill="#F7BE31" transform="translate(123,94)"/>
<path d="M0 0 C1.32 0 2.64 0 4 0 C4 1.32 4 2.64 4 4 C5.32 4 6.64 4 8 4 C8 4.99 8 5.98 8 7 C6.68 7 5.36 7 4 7 C4 10.63 4 14.26 4 18 C5.32 18 6.64 18 8 18 C8.33 18.99 8.66 19.98 9 21 C5.625 21.625 5.625 21.625 2 22 C0 20 0 20 -0.1953125 16.9609375 C-0.16050781 15.18589844 -0.16050781 15.18589844 -0.125 13.375 C-0.10695312 12.18648437 -0.08890625 10.99796875 -0.0703125 9.7734375 C-0.04710937 8.85820312 -0.02390625 7.94296875 0 7 C-0.99 7 -1.98 7 -3 7 C-3 6.01 -3 5.02 -3 4 C-2.01 4 -1.02 4 0 4 C0 2.68 0 1.36 0 0 Z " fill="#565656" transform="translate(190,235)"/>
<path d="M0 0 C3.875 0.4375 3.875 0.4375 5.875 2.4375 C2.64708445 4.5894437 1.59099191 4.63836443 -2.125 4.4375 C-2.125 7.4075 -2.125 10.3775 -2.125 13.4375 C0.185 13.7675 2.495 14.0975 4.875 14.4375 C4.875 15.4275 4.875 16.4175 4.875 17.4375 C1.949084 18.900458 0.11882653 18.88273109 -3.125 18.4375 C-6.75871374 15.19875514 -7.92764585 13.68740962 -8.6875 8.875 C-7.76837102 3.25810066 -5.88069739 0.17107483 0 0 Z " fill="#595959" transform="translate(40.125,238.5625)"/>
<path d="M0 0 C1.32 0.33 2.64 0.66 4 1 C3.01 1 2.02 1 1 1 C1.04125 2.27875 1.0825 3.5575 1.125 4.875 C1.1953125 7.0546875 1.1953125 7.0546875 1 9 C0.34 9.66 -0.32 10.32 -1 11 C-2.65 11 -4.3 11 -6 11 C-5.67 14.3 -5.34 17.6 -5 21 C-2.525 21.99 -2.525 21.99 0 23 C-0.33 23.66 -0.66 24.32 -1 25 C-6.51532033 25.36768802 -6.51532033 25.36768802 -8.8125 23.625 C-11.47168544 19.98611466 -11.59349107 16.37177225 -11 12 C-9.375 9 -9.375 9 -7 7 C-3.75 6.6875 -3.75 6.6875 -1 7 C-0.67 4.69 -0.34 2.38 0 0 Z " fill="#5E5E5E" transform="translate(116,199)"/>
<path d="M0 0 C0.66 0 1.32 0 2 0 C2 0.99 2 1.98 2 3 C1.34 3 0.68 3 0 3 C-0.33 3.99 -0.66 4.98 -1 6 C-1.66 6 -2.32 6 -3 6 C-3.33 6.99 -3.66 7.98 -4 9 C-5.671875 10.39453125 -5.671875 10.39453125 -7.75 11.8125 C-10.44997624 13.75069723 -12.67889238 15.58567105 -14.75 18.1875 C-16.71733377 20.64666721 -18.3426413 22.35060494 -21 24 C-21.66 24 -22.32 24 -23 24 C-23.33 24.99 -23.66 25.98 -24 27 C-26.1796875 29.078125 -26.1796875 29.078125 -28.875 31.25 C-30.20144531 32.34054688 -30.20144531 32.34054688 -31.5546875 33.453125 C-32.36164063 33.96359375 -33.16859375 34.4740625 -34 35 C-34.99 34.67 -35.98 34.34 -37 34 C-35.515 33.505 -35.515 33.505 -34 33 C-34 32.34 -34 31.68 -34 31 C-33.360625 30.896875 -32.72125 30.79375 -32.0625 30.6875 C-31.0415625 30.3471875 -31.0415625 30.3471875 -30 30 C-29.67 29.01 -29.34 28.02 -29 27 C-28.34 27 -27.68 27 -27 27 C-26.67 26.01 -26.34 25.02 -26 24 C-21.54285714 20 -21.54285714 20 -19 20 C-19 19.01 -19 18.02 -19 17 C-18.01 17 -17.02 17 -16 17 C-15.67 16.01 -15.34 15.02 -15 14 C-12.66796984 11.35703248 -11.38326722 10.12775574 -8 9 C-7.566875 8.071875 -7.566875 8.071875 -7.125 7.125 C-5.64082128 4.32155131 -3.71920534 3.53391071 -1 2 C-0.67 1.34 -0.34 0.68 0 0 Z " fill="#C4750F" transform="translate(156,98)"/>
<path d="M0 0 C2.97 0.495 2.97 0.495 6 1 C6 1.99 6 2.98 6 4 C5.34 4 4.68 4 4 4 C4.14168137 5.43791516 4.28851043 6.8753237 4.4375 8.3125 C4.51871094 9.11300781 4.59992188 9.91351563 4.68359375 10.73828125 C4.95265693 13.16087179 4.95265693 13.16087179 6 16 C5.34 16 4.68 16 4 16 C4 18.64 4 21.28 4 24 C2.68 24 1.36 24 0 24 C0 16.08 0 8.16 0 0 Z " fill="#4D4D4D" transform="translate(95,239)"/>
<path d="M0 0 C1.32 0 2.64 0 4 0 C4 7.26 4 14.52 4 22 C4.66 22 5.32 22 6 22 C6 22.99 6 23.98 6 25 C4.33388095 25.042721 2.66617115 25.04063832 1 25 C0 24 0 24 -0.11352539 21.68334961 C-0.10828857 20.68311768 -0.10305176 19.68288574 -0.09765625 18.65234375 C-0.09443359 17.57275391 -0.09121094 16.49316406 -0.08789062 15.38085938 C-0.07951172 14.24455078 -0.07113281 13.10824219 -0.0625 11.9375 C-0.05798828 10.79732422 -0.05347656 9.65714844 -0.04882812 8.48242188 C-0.03699747 5.65489649 -0.0205141 2.8274736 0 0 Z " fill="#565656" transform="translate(79,199)"/>
<path d="M0 0 C0.33 1.32 0.66 2.64 1 4 C0.34 4 -0.32 4 -1 4 C-1 4.99 -1 5.98 -1 7 C-1.639375 7.103125 -2.27875 7.20625 -2.9375 7.3125 C-3.9584375 7.6528125 -3.9584375 7.6528125 -5 8 C-5.33 8.99 -5.66 9.98 -6 11 C-7.63260714 12.37482707 -9.30225062 13.70647667 -11 15 C-11.556875 15.5775 -12.11375 16.155 -12.6875 16.75 C-14 18 -14 18 -16 18 C-16 18.66 -16 19.32 -16 20 C-19.4352048 22.29013653 -20.985331 22.17842973 -25 22 C-25.33 21.34 -25.66 20.68 -26 20 C-22.48620074 17.34672301 -19.50718884 15.21355319 -15.4375 13.5 C-10.44224127 11.32025074 -7.06042511 8.59063766 -4 4 C-3.34 4 -2.68 4 -2 4 C-2 3.01 -2 2.02 -2 1 C-1.34 0.67 -0.68 0.34 0 0 Z " fill="#E29C11" transform="translate(138,111)"/>
<path d="M0 0 C0.33 0 0.66 0 1 0 C1.17942163 3.94727588 1.09350689 6.5980513 -1 10 C-1.66 10 -2.32 10 -3 10 C-3.33 10.99 -3.66 11.98 -4 13 C-12.20509633 20.31323804 -12.20509633 20.31323804 -18 20 C-15.87101079 15.34283611 -13.12314407 13.72489081 -8.8671875 11.26953125 C-6.42135571 9.6065703 -5.33598898 7.59775635 -4 5 C-3.34 5 -2.68 5 -2 5 C-1.34 3.35 -0.68 1.7 0 0 Z " fill="#9E4C8D" transform="translate(143,74)"/>
<path d="M0 0 C2.475 0.495 2.475 0.495 5 1 C5.99 1 6.98 1 8 1 C8.33 1.66 8.66 2.32 9 3 C8.01 3.33 7.02 3.66 6 4 C5.67 8.29 5.34 12.58 5 17 C3.35 17 1.7 17 0 17 C0 11.39 0 5.78 0 0 Z " fill="#606060" transform="translate(67,239)"/>
<path d="M0 0 C0.33 0 0.66 0 1 0 C1.125 7.625 1.125 7.625 0 11 C-0.66 11 -1.32 11 -2 11 C-2.0825 11.53625 -2.165 12.0725 -2.25 12.625 C-4.15202171 18.64806875 -8.17496238 22.27156184 -13 26 C-13.33 25.34 -13.66 24.68 -14 24 C-13.01 22.515 -13.01 22.515 -12 21 C-11.34 21 -10.68 21 -10 21 C-9.34 19.35 -8.68 17.7 -8 16 C-7.34 16 -6.68 16 -6 16 C-6.020625 15.05125 -6.04125 14.1025 -6.0625 13.125 C-6 10 -6 10 -5 8 C-5.66 7.67 -6.32 7.34 -7 7 C-5.37660195 5.29115995 -3.70680947 3.62553283 -2 2 C-1.34 2 -0.68 2 0 2 C0 1.34 0 0.68 0 0 Z " fill="#E4A523" transform="translate(166,107)"/>
<path d="M0 0 C0.33 0 0.66 0 1 0 C1.125 5.75 1.125 5.75 0 8 C-0.66 8 -1.32 8 -2 8 C-2.33 8.99 -2.66 9.98 -3 11 C-4.63260714 12.37482707 -6.30225062 13.70647667 -8 15 C-8.556875 15.5775 -9.11375 16.155 -9.6875 16.75 C-11 18 -11 18 -13 18 C-13 18.66 -13 19.32 -13 20 C-14.98 20 -16.96 20 -19 20 C-16.88414779 17.80578289 -14.80408026 15.85072782 -12.375 14 C-9.91606382 12.20440852 -9.91606382 12.20440852 -8.9375 9.8125 C-8.628125 9.214375 -8.31875 8.61625 -8 8 C-7.34 7.855625 -6.68 7.71125 -6 7.5625 C-5.01 7.2840625 -5.01 7.2840625 -4 7 C-2.83046584 4.57616923 -2.83046584 4.57616923 -2 2 C-1.34 1.34 -0.68 0.68 0 0 Z " fill="#98508A" transform="translate(162,80)"/>
<path d="M0 0 C0.6875 1.75 0.6875 1.75 1 4 C0.02248365 5.34990354 -0.98199424 6.68036291 -2 8 C-2.73260159 10.31347872 -3.411438 12.645752 -4 15 C-4.66 15 -5.32 15 -6 15 C-6.33 16.32 -6.66 17.64 -7 19 C-7.66 19 -8.32 19 -9 19 C-9.33 19.99 -9.66 20.98 -10 22 C-11.5234375 23.203125 -11.5234375 23.203125 -13.375 24.25 C-13.98085937 24.60578125 -14.58671875 24.9615625 -15.2109375 25.328125 C-17 26 -17 26 -20 25 C-18.1875 23 -18.1875 23 -16 21 C-15.01 21 -14.02 21 -13 21 C-12.938125 20.401875 -12.87625 19.80375 -12.8125 19.1875 C-12 17 -12 17 -9.5 15.625 C-6.6596437 14.19470987 -6.6596437 14.19470987 -6.3125 10.875 C-6.1578125 9.451875 -6.1578125 9.451875 -6 8 C-5.34 7.67 -4.68 7.34 -4 7 C-3.67 6.01 -3.34 5.02 -3 4 C-2.34 3.67 -1.68 3.34 -1 3 C-0.67 2.01 -0.34 1.02 0 0 Z " fill="#814672" transform="translate(173,90)"/>
<path d="M0 0 C1.32 0.33 2.64 0.66 4 1 C2.9171875 1.5878125 2.9171875 1.5878125 1.8125 2.1875 C-1.22801329 4.1469419 -3.48374365 6.41573672 -6 9 C-6.99 9.495 -6.99 9.495 -8 10 C-8.12375 10.61875 -8.2475 11.2375 -8.375 11.875 C-9.21377145 14.72682293 -10.47724337 15.51602551 -13 17 C-13.99 17 -14.98 17 -16 17 C-16 15.68 -16 14.36 -16 13 C-15.34 13 -14.68 13 -14 13 C-13.731875 12.360625 -13.46375 11.72125 -13.1875 11.0625 C-12 9 -12 9 -9 8 C-9 7.34 -9 6.68 -9 6 C-3.70588235 2 -3.70588235 2 0 2 C0 1.34 0 0.68 0 0 Z " fill="#EBBCEC" transform="translate(138,74)"/>
<path d="M0 0 C1.2065625 0.0309375 1.2065625 0.0309375 2.4375 0.0625 C3.55195498 2.29140995 3.60230286 3.59305106 3.625 6.0625 C3.63917969 6.76375 3.65335937 7.465 3.66796875 8.1875 C3.4375 10.0625 3.4375 10.0625 1.4375 12.0625 C-2.09821429 11.52678571 -2.09821429 11.52678571 -3.5625 10.0625 C-3.6604057 8.56511876 -3.69224864 7.06307108 -3.6875 5.5625 C-3.69007812 4.7478125 -3.69265625 3.933125 -3.6953125 3.09375 C-3.49425003 0.01867689 -3.10408492 0.07570939 0 0 Z " fill="#F5F5F5" transform="translate(121.5625,241.9375)"/>
<path d="M0 0 C1.50934217 3.01868434 1.17510672 5.67297229 1 9 C0.01 10.485 0.01 10.485 -1 12 C-4.875 11.125 -4.875 11.125 -6 10 C-6.07179964 8.48071962 -6.08392007 6.95832518 -6.0625 5.4375 C-6.05347656 4.61121094 -6.04445313 3.78492188 -6.03515625 2.93359375 C-6.02355469 2.29550781 -6.01195313 1.65742188 -6 1 C-4 0 -4 0 0 0 Z " fill="#F2F2F2" transform="translate(105,242)"/>
<path d="M0 0 C4.70588235 0.70588235 4.70588235 0.70588235 6 2 C6.35897436 8.46153846 6.35897436 8.46153846 4 12 C0.125 11.125 0.125 11.125 -1 10 C-1.0979057 8.50261876 -1.12974864 7.00057108 -1.125 5.5 C-1.12757812 4.6853125 -1.13015625 3.870625 -1.1328125 3.03125 C-1 1 -1 1 0 0 Z " fill="#F6F6F6" transform="translate(53,242)"/>
<path d="M0 0 C4.70588235 0.70588235 4.70588235 0.70588235 6 2 C6.07313567 4.53049402 6.09247527 7.03304837 6.0625 9.5625 C6.05798828 10.27341797 6.05347656 10.98433594 6.04882812 11.71679688 C6.03700864 13.47790013 6.01907263 15.23896036 6 17 C4.68 17 3.36 17 2 17 C1.95101562 16.01257813 1.90203125 15.02515625 1.8515625 14.0078125 C1.77679688 12.72648438 1.70203125 11.44515625 1.625 10.125 C1.55539063 8.84882813 1.48578125 7.57265625 1.4140625 6.2578125 C1.32758894 2.91938301 1.32758894 2.91938301 -1 1 C-0.67 0.67 -0.34 0.34 0 0 Z " fill="#515151" transform="translate(178,239)"/>
<path d="M0 0 C4.70588235 0.70588235 4.70588235 0.70588235 6 2 C6.07313567 4.53049402 6.09247527 7.03304837 6.0625 9.5625 C6.05798828 10.27341797 6.05347656 10.98433594 6.04882812 11.71679688 C6.03700864 13.47790013 6.01907263 15.23896036 6 17 C4.68 17 3.36 17 2 17 C1.95101562 16.01257813 1.90203125 15.02515625 1.8515625 14.0078125 C1.77679688 12.72648438 1.70203125 11.44515625 1.625 10.125 C1.55539063 8.84882813 1.48578125 7.57265625 1.4140625 6.2578125 C1.32758894 2.91938301 1.32758894 2.91938301 -1 1 C-0.67 0.67 -0.34 0.34 0 0 Z " fill="#4A4A4A" transform="translate(84,239)"/>
<path d="M0 0 C1.05283182 3.15849546 1.29904469 4.030755 0 7 C-1.64821244 8.03013277 -3.31503702 9.03114628 -5 10 C-5.33 10.99 -5.66 11.98 -6 13 C-6.99 13 -7.98 13 -9 13 C-10.01111093 16.04913228 -10.01111093 16.04913228 -9 19 C-11.31 19 -13.62 19 -16 19 C-14.63194055 14.07498599 -12.26169461 12.60920078 -8 10 C-7.4225 9.4225 -6.845 8.845 -6.25 8.25 C-5.63125 7.63125 -5.63125 7.63125 -5 7 C-4.34 7 -3.68 7 -3 7 C-3 6.01 -3 5.02 -3 4 C-3.99 3.67 -4.98 3.34 -6 3 C-5.195625 2.690625 -4.39125 2.38125 -3.5625 2.0625 C-1.10919595 1.23664655 -1.10919595 1.23664655 0 0 Z " fill="#B65DA3" transform="translate(166,98)"/>
<path d="M0 0 C0.66 0.33 1.32 0.66 2 1 C-0.65977347 5.0768659 -2.52301259 7.91073921 -7 10 C-7.495 10.825 -7.99 11.65 -8.5 12.5 C-10.15782917 15.26304862 -11.18025122 15.68411723 -14 17 C-14.33 17.99 -14.66 18.98 -15 20 C-16.32 20 -17.64 20 -19 20 C-19 18 -19 18 -16.6875 15.4375 C-14 13 -14 13 -11 12 C-10.67 11.01 -10.34 10.02 -10 9 C-9.38125 8.71125 -8.7625 8.4225 -8.125 8.125 C-5.31686383 6.63833968 -4.56191332 4.716371 -3 2 C-2.01 1.34 -1.02 0.68 0 0 Z " fill="#CB6EB8" transform="translate(161,79)"/>
<path d="M0 0 C1.65 0 3.3 0 5 0 C4.67 4.62 4.34 9.24 4 14 C2.68 14 1.36 14 0 14 C-0.91297308 9.02936879 -0.91297308 4.97063121 0 0 Z " fill="#DC85BB" transform="translate(171,43)"/>
<path d="M0 0 C0 3.3 0 6.6 0 10 C-1.65614657 10.38218767 -3.32457024 10.71395102 -5 11 C-6 10 -6 10 -6.09765625 7.71484375 C-6.08605469 6.79832031 -6.07445313 5.88179687 -6.0625 4.9375 C-6.05347656 4.01839844 -6.04445313 3.09929687 -6.03515625 2.15234375 C-6.02355469 1.44207031 -6.01195313 0.73179687 -6 0 C-4 -1 -4 -1 0 0 Z " fill="#F8F8F8" transform="translate(116,210)"/>
<path d="M0 0 C0.66 0.33 1.32 0.66 2 1 C-0.86812004 4.13742708 -3.57785501 5.9923819 -7.375 7.875 C-12.17767736 10.38855077 -15.33685203 13.05507142 -19 17 C-19.66 17 -20.32 17 -21 17 C-21.33 17.66 -21.66 18.32 -22 19 C-21.67 17.35 -21.34 15.7 -21 14 C-20.01 13.67 -19.02 13.34 -18 13 C-18 12.34 -18 11.68 -18 11 C-13.84182591 7.75662421 -9.76368223 5.27828281 -5 3 C-4.0925 2.4225 -3.185 1.845 -2.25 1.25 C-1.5075 0.8375 -0.765 0.425 0 0 Z " fill="#FECF49" transform="translate(120,98)"/>
<path d="M0 0 C0 5.18481607 -3.92584611 9.00359995 -7 13 C-8.32 12.67 -9.64 12.34 -11 12 C-10.6999825 8.49979578 -10.04266259 7.05095809 -7.75 4.3125 C-5.16437673 2.13822589 -3.19363318 1.00371328 0 0 Z " fill="#E6A9DC" transform="translate(158,102)"/>
<path d="M0 0 C0.99 0.33 1.98 0.66 3 1 C2.01 1.33 1.02 1.66 0 2 C-0.33 2.99 -0.66 3.98 -1 5 C-1.99 5 -2.98 5 -4 5 C-4.33 5.99 -4.66 6.98 -5 8 C-6.84765625 9.60546875 -6.84765625 9.60546875 -9.0625 11.1875 C-9.79597656 11.71730469 -10.52945313 12.24710938 -11.28515625 12.79296875 C-11.85105469 13.19128906 -12.41695312 13.58960937 -13 14 C-13 11.03 -13 8.06 -13 5 C-12.67 6.32 -12.34 7.64 -12 9 C-10.75283203 8.00806641 -10.75283203 8.00806641 -9.48046875 6.99609375 C-8.38323304 6.1426882 -7.28555356 5.28985299 -6.1875 4.4375 C-5.64029297 3.99986328 -5.09308594 3.56222656 -4.52929688 3.11132812 C-3.0778042 1.99411861 -1.54189429 0.98871133 0 0 Z " fill="#CF8AA7" transform="translate(153,79)"/>
<path d="M0 0 C0.33 0.66 0.66 1.32 1 2 C0.67 2.66 0.34 3.32 0 4 C-0.66 4 -1.32 4 -2 4 C-2 5.32 -2 6.64 -2 8 C-1.01 8 -0.02 8 1 8 C0.67 9.32 0.34 10.64 0 12 C-2.97851562 12.29296875 -2.97851562 12.29296875 -5.95703125 12.5859375 C-8.29988142 12.92665391 -8.29988142 12.92665391 -11 15 C-11 14.01 -11 13.02 -11 12 C-8.11165997 9.89229241 -6.61537605 9 -3 9 C-3.061875 8.071875 -3.12375 7.14375 -3.1875 6.1875 C-3 3 -3 3 -1.5 1.125 C-1.005 0.75375 -0.51 0.3825 0 0 Z " fill="#D876C0" transform="translate(169,86)"/>
<path d="M0 0 C0.66 0 1.32 0 2 0 C2.48765108 7.19285339 2.48765108 7.19285339 0.1875 11 C-2 13 -2 13 -5 13 C-4.38722388 10.03824877 -3.74627478 8.61941217 -2 6 C-1.29835358 4.01200182 -0.62627128 2.01301483 0 0 Z " fill="#FECB40" transform="translate(151,119)"/>
<path d="M0 0 C0.66 0 1.32 0 2 0 C0.68518188 4.20031086 -0.66595456 5.83920803 -4.4375 8.0625 C-7.75288628 10.03425362 -9.84613374 11.77958903 -12 15 C-12.99 14.67 -13.98 14.34 -15 14 C-15 13.34 -15 12.68 -15 12 C-13.96875 11.46375 -12.9375 10.9275 -11.875 10.375 C-9.06204878 8.78879221 -6.92228807 7.07859399 -4.6875 4.75 C-3.800625 3.8425 -2.91375 2.935 -2 2 C-1.34 2 -0.68 2 0 2 C0 1.34 0 0.68 0 0 Z " fill="#C768AF" transform="translate(137,79)"/>
<path d="M0 0 C0.66 0.33 1.32 0.66 2 1 C1.01 1.33 0.02 1.66 -1 2 C-1.33 2.99 -1.66 3.98 -2 5 C-4.1796875 7.078125 -4.1796875 7.078125 -6.875 9.25 C-8.20144531 10.34054688 -8.20144531 10.34054688 -9.5546875 11.453125 C-10.36164063 11.96359375 -11.16859375 12.4740625 -12 13 C-12.99 12.67 -13.98 12.34 -15 12 C-14.01 11.67 -13.02 11.34 -12 11 C-12 10.34 -12 9.68 -12 9 C-11.360625 8.896875 -10.72125 8.79375 -10.0625 8.6875 C-9.0415625 8.3471875 -9.0415625 8.3471875 -8 8 C-7.67 7.01 -7.34 6.02 -7 5 C-6.34 5 -5.68 5 -5 5 C-4.67 4.01 -4.34 3.02 -4 2 C-2.0625 0.75 -2.0625 0.75 0 0 Z " fill="#BF6F10" transform="translate(134,120)"/>
<path d="M0 0 C-3.38738969 2.77150065 -6.85979386 5.35249506 -10.44921875 7.8515625 C-12.15141425 9.05312727 -12.15141425 9.05312727 -14 11 C-13.49396008 8.83125748 -13.00016187 7.00032373 -12 5 C-11.34 5 -10.68 5 -10 5 C-9.773125 4.38125 -9.54625 3.7625 -9.3125 3.125 C-6.9604125 -0.68314167 -4.12119017 -1.37373006 0 0 Z " fill="#EEAE21" transform="translate(112,114)"/>
<path d="M0 0 C0.66 0 1.32 0 2 0 C0.37255278 4.88234166 -3.82790744 7.21860496 -8 10 C-10.6875 10.125 -10.6875 10.125 -13 10 C-10.89694322 6.84541483 -9.76731637 6.12950312 -6.5 4.4375 C-3.90381014 3.08461535 -2.0806729 2.0806729 0 0 Z " fill="#6E3862" transform="translate(138,84)"/>
<path d="M0 0 C0.66 0 1.32 0 2 0 C2.08912219 3.83225427 1.87867729 7.26562152 1 11 C1.66 10.67 2.32 10.34 3 10 C2.67 12.64 2.34 15.28 2 18 C1.01 17.67 0.02 17.34 -1 17 C-1.10477512 11.21408489 -0.99250545 5.70690634 0 0 Z " fill="#B5719E" transform="translate(181,43)"/>
<path d="M0 0 C0 0.66 0 1.32 0 2 C-1.98 2.66 -3.96 3.32 -6 4 C-6 5.32 -6 6.64 -6 8 C-7.98 8 -9.96 8 -12 8 C-12.33 7.34 -12.66 6.68 -13 6 C-11.92250558 5.17977251 -10.83770492 4.36913831 -9.75 3.5625 C-9.14671875 3.11003906 -8.5434375 2.65757813 -7.921875 2.19140625 C-5.31259627 0.57386557 -3.05547025 0 0 0 Z " fill="#EAA81A" transform="translate(125,125)"/>
<path d="M0 0 C1.32 0.33 2.64 0.66 4 1 C4.08133791 2.91595968 4.13934367 4.83291932 4.1875 6.75 C4.22230469 7.81734375 4.25710937 8.8846875 4.29296875 9.984375 C3.97082786 13.30027855 3.22851086 14.59016673 1 17 C-0.20220203 13.46905698 0.20467651 10.87101018 0.9375 7.25 C1.13214844 6.26515625 1.32679688 5.2803125 1.52734375 4.265625 C1.68332031 3.51796875 1.83929688 2.7703125 2 2 C1.34 2 0.68 2 0 2 C0 1.34 0 0.68 0 0 Z " fill="#ECA8DA" transform="translate(173,57)"/>
<path d="M0 0 C0.33 0 0.66 0 1 0 C1.125 7.625 1.125 7.625 0 11 C-0.66 11 -1.32 11 -2 11 C-2.33 12.32 -2.66 13.64 -3 15 C-4.12758089 11.61725734 -3.81750262 10.23221777 -3.0625 6.8125 C-2.86785156 5.91144531 -2.67320312 5.01039062 -2.47265625 4.08203125 C-2.31667969 3.39496094 -2.16070312 2.70789063 -2 2 C-1.34 2 -0.68 2 0 2 C0 1.34 0 0.68 0 0 Z " fill="#DB9E35" transform="translate(166,107)"/>
<path d="M0 0 C0.70125 0.144375 1.4025 0.28875 2.125 0.4375 C1.3125 2.375 1.3125 2.375 0.125 4.4375 C-0.865 4.7675 -1.855 5.0975 -2.875 5.4375 C-4.30357119 6.83855576 -4.30357119 6.83855576 -5.5625 8.5 C-6.325625 9.469375 -7.08875 10.43875 -7.875 11.4375 C-8.5390625 9.671875 -8.5390625 9.671875 -8.875 7.4375 C-6.82020505 3.63690183 -4.3328573 0.65934785 0 0 Z " fill="#D78D0B" transform="translate(147.875,103.5625)"/>
<path d="M0 0 C-1.49041773 3.79379058 -3.69062512 5.68343758 -7 8 C-7.66 8 -8.32 8 -9 8 C-8.20944111 2.46608774 -5.52734603 0 0 0 Z " fill="#EFB122" transform="translate(145,104)"/>
<path d="M0 0 C0 3.97054597 -1.3139381 5.16471244 -4 8 C-6.25 8.8125 -6.25 8.8125 -8 9 C-8 9.66 -8 10.32 -8 11 C-9.98 11 -11.96 11 -14 11 C-10.97906708 7.63049789 -8.01519266 6.00759633 -4 4 C-1.68581709 1.93832739 -1.68581709 1.93832739 0 0 Z " fill="#793E64" transform="translate(157,89)"/>
<path d="M0 0 C0 0.99 0 1.98 0 3 C-0.66 3 -1.32 3 -2 3 C-2.33 3.99 -2.66 4.98 -3 6 C-3.66 6 -4.32 6 -5 6 C-5.33 6.99 -5.66 7.98 -6 9 C-6.99 9.66 -7.98 10.32 -9 11 C-9.99 10.67 -10.98 10.34 -12 10 C-9.66666667 7.66666667 -7.33333333 5.33333333 -5 3 C-4.46375 2.4225 -3.9275 1.845 -3.375 1.25 C-2 0 -2 0 0 0 Z " fill="#A3513D" transform="translate(158,98)"/>
<path d="M0 0 C0 0.99 0 1.98 0 3 C-0.66 3 -1.32 3 -2 3 C-2.33 3.99 -2.66 4.98 -3 6 C-3.66 6 -4.32 6 -5 6 C-5 6.99 -5 7.98 -5 9 C-6.32 8.67 -7.64 8.34 -9 8 C-8.34 8 -7.68 8 -7 8 C-7 7.34 -7 6.68 -7 6 C-8.65 6 -10.3 6 -12 6 C-12 5.67 -12 5.34 -12 5 C-10.02 5 -8.04 5 -6 5 C-6 4.34 -6 3.68 -6 3 C-4.02 2.01 -2.04 1.02 0 0 Z " fill="#E3A220" transform="translate(155,95)"/>
<path d="M0 0 C0 0.99 0 1.98 0 3 C-0.99 3.33 -1.98 3.66 -3 4 C-2.67 4.99 -2.34 5.98 -2 7 C-3.97420135 9.52259061 -4.96745642 9.9929808 -8.1875 10.6875 C-9.5796875 10.8421875 -9.5796875 10.8421875 -11 11 C-9.1875 8.5 -9.1875 8.5 -7 6 C-6.01 6 -5.02 6 -4 6 C-3.8453125 5.071875 -3.8453125 5.071875 -3.6875 4.125 C-3 2 -3 2 0 0 Z " fill="#843F7A" transform="translate(164,105)"/>
<path d="M0 0 C1.67542976 0.28604898 3.34385343 0.61781233 5 1 C5 2.32 5 3.64 5 5 C2.69 5 0.38 5 -2 5 C-1.125 1.125 -1.125 1.125 0 0 Z " fill="#DFDFDF" transform="translate(93,209)"/>
<path d="M0 0 C0.66 0.33 1.32 0.66 2 1 C0.02 1.99 0.02 1.99 -2 3 C-1.34 2.01 -0.68 1.02 0 0 Z M-3 5 C-5.97180943 6.89865603 -8.51460083 8.35455571 -12 9 C-12 9.66 -12 10.32 -12 11 C-13.98 11.99 -13.98 11.99 -16 13 C-15.67 12.01 -15.34 11.02 -15 10 C-14.34 10 -13.68 10 -13 10 C-12.67 9.01 -12.34 8.02 -12 7 C-6.69230769 3.76923077 -6.69230769 3.76923077 -3 5 Z " fill="#FECB3F" transform="translate(121,118)"/>
<path d="M0 0 C0 3 0 3 -1 5 C-2.32 5 -3.64 5 -5 5 C-5 5.66 -5 6.32 -5 7 C-6.75 8.5078125 -6.75 8.5078125 -9 10.125 C-9.7425 10.66382812 -10.485 11.20265625 -11.25 11.7578125 C-11.8275 12.16773437 -12.405 12.57765625 -13 13 C-12.2421875 9.21875 -12.2421875 9.21875 -10.0625 7.25 C-8 6 -8 6 -6 6 C-5.67 5.01 -5.34 4.02 -5 3 C-2.4375 1.3125 -2.4375 1.3125 0 0 Z " fill="#E090D4" transform="translate(142,74)"/>
<path d="M0 0 C0.66 0 1.32 0 2 0 C1.91231752 1.5843317 1.80412671 3.16753567 1.6875 4.75 C1.62949219 5.63171875 1.57148438 6.5134375 1.51171875 7.421875 C0.9358819 10.32303774 -0.07596148 11.79225607 -2 14 C-2.1799928 8.78020872 -1.97094808 4.92737019 0 0 Z " fill="#91607E" transform="translate(179,60)"/>
<path d="M0 0 C0.66 0.33 1.32 0.66 2 1 C0.625 2.5 0.625 2.5 -1 4 C-1.66 4 -2.32 4 -3 4 C-3 4.66 -3 5.32 -3 6 C-5.375 8.625 -5.375 8.625 -8 11 C-8.66 11 -9.32 11 -10 11 C-9.67 9.68 -9.34 8.36 -9 7 C-8.34 7 -7.68 7 -7 7 C-7 6.34 -7 5.68 -7 5 C-6.34 5 -5.68 5 -5 5 C-5 4.34 -5 3.68 -5 3 C-2.625 1.3125 -2.625 1.3125 0 0 Z " fill="#D3829F" transform="translate(132,76)"/>
<path d="M0 0 C1.32 0 2.64 0 4 0 C3.46274105 3.37705625 2.88935377 6.696686 2 10 C1.34 10 0.68 10 0 10 C0 6.7 0 3.4 0 0 Z " fill="#F3A8E3" transform="translate(177,43)"/>
<path d="M0 0 C1.42944945 2.35438733 2.08661261 3.48032433 1.625 6.25 C1.41875 6.8275 1.2125 7.405 1 8 C-0.9375 7.6875 -0.9375 7.6875 -3 7 C-3.33 6.01 -3.66 5.02 -4 4 C-2.68 2.68 -1.36 1.36 0 0 Z " fill="#CE8519" transform="translate(139,86)"/>
<path d="M0 0 C1.32 0.33 2.64 0.66 4 1 C4 1.99 4 2.98 4 4 C1.46815512 6.35723489 0.52809907 7 -3 7 C-3 5.68 -3 4.36 -3 3 C-2.34 3 -1.68 3 -1 3 C-0.67 2.01 -0.34 1.02 0 0 Z " fill="#E8ADE8" transform="translate(125,84)"/>
<path d="M0 0 C0.99 0 1.98 0 3 0 C2.67 1.32 2.34 2.64 2 4 C2.66 4 3.32 4 4 4 C4 4.66 4 5.32 4 6 C1.69 6 -0.62 6 -3 6 C-1.125 1.125 -1.125 1.125 0 0 Z " fill="#C06C9C" transform="translate(153,111)"/>
<path d="M0 0 C0.66 0.33 1.32 0.66 2 1 C0.71034824 2.37562854 -0.62689293 3.70766393 -2 5 C-2.66 5 -3.32 5 -4 5 C-4.33 5.99 -4.66 6.98 -5 8 C-6.32 8 -7.64 8 -9 8 C-9 7.34 -9 6.68 -9 6 C-7.03125 4.4921875 -7.03125 4.4921875 -4.5 2.875 C-3.6646875 2.33617188 -2.829375 1.79734375 -1.96875 1.2421875 C-1.3190625 0.83226563 -0.669375 0.42234375 0 0 Z " fill="#B65EA6" transform="translate(151,91)"/>
<path d="M0 0 C1.33332095 2.6666419 0.67102033 4.16680303 0 7 C-0.66 7 -1.32 7 -2 7 C-2 9.31 -2 11.62 -2 14 C-4.17944188 10.73083718 -4.23305854 10.13719614 -3.8125 6.4375 C-3.73644531 5.65246094 -3.66039062 4.86742188 -3.58203125 4.05859375 C-3 2 -3 2 0 0 Z " fill="#DB88C3" transform="translate(176,70)"/>
<path d="M0 0 C0.99 0 1.98 0 3 0 C2.88601335 1.62580966 2.75844341 3.25067157 2.625 4.875 C2.52058594 6.23238281 2.52058594 6.23238281 2.4140625 7.6171875 C2 10 2 10 0 12 C0 8.04 0 4.08 0 0 Z " fill="#D063A5" transform="translate(172,43)"/>
<path d="M0 0 C0.33 0 0.66 0 1 0 C1.17942163 3.94727588 1.09350689 6.5980513 -1 10 C-1.99 10 -2.98 10 -4 10 C-2.99806563 6.20696275 -2.18975773 3.28463659 0 0 Z " fill="#884C7B" transform="translate(143,74)"/>
<path d="M0 0 C0.99 0.33 1.98 0.66 3 1 C3 1.66 3 2.32 3 3 C4.65 3 6.3 3 8 3 C8 3.66 8 4.32 8 5 C5.125 5.625 5.125 5.625 2 6 C1.34 5.34 0.68 4.68 0 4 C0 2.68 0 1.36 0 0 Z " fill="#F4B937" transform="translate(140,98)"/>
<path d="M0 0 C-1 3 -1 3 -4.0625 4.6875 C-5.031875 5.120625 -6.00125 5.55375 -7 6 C-7 5.34 -7 4.68 -7 4 C-8.32 3.67 -9.64 3.34 -11 3 C-10.05125 2.690625 -9.1025 2.38125 -8.125 2.0625 C-2.05882353 0 -2.05882353 0 0 0 Z " fill="#DFA426" transform="translate(136,91)"/>
<path d="M0 0 C1.65 0.33 3.3 0.66 5 1 C5 1.99 5 2.98 5 4 C3.02 4 1.04 4 -1 4 C-0.67 2.68 -0.34 1.36 0 0 Z " fill="#FDFDFD" transform="translate(157,242)"/>
<path d="M0 0 C0.33 0.99 0.66 1.98 1 3 C-1.25 5.5625 -1.25 5.5625 -4 8 C-6.3125 7.8125 -6.3125 7.8125 -8 7 C-3.25 3 -3.25 3 -1 3 C-0.67 2.01 -0.34 1.02 0 0 Z " fill="#F5C03E" transform="translate(130,125)"/>
<path d="M0 0 C0.33 0.66 0.66 1.32 1 2 C3.02463255 2.65213292 3.02463255 2.65213292 5 3 C1.25 6 1.25 6 -1 6 C-1.625 4.125 -1.625 4.125 -2 2 C-1.34 1.34 -0.68 0.68 0 0 Z " fill="#E49FD1" transform="translate(141,92)"/>
<path d="M0 0 C0.33 0 0.66 0 1 0 C0.67 2.97 0.34 5.94 0 9 C-0.99 9.33 -1.98 9.66 -3 10 C-2.39009109 6.44219804 -1.4216319 3.3171411 0 0 Z " fill="#BD389D" transform="translate(173,84)"/>
<path d="M0 0 C0.33 0 0.66 0 1 0 C1.125 5.75 1.125 5.75 0 8 C-0.99 8 -1.98 8 -3 8 C-1.125 1.125 -1.125 1.125 0 0 Z " fill="#99628B" transform="translate(162,80)"/>
<path d="M0 0 C0.33 0.66 0.66 1.32 1 2 C0.0625 4.125 0.0625 4.125 -1 6 C-1.66 6 -2.32 6 -3 6 C-3.33 6.99 -3.66 7.98 -4 9 C-4.66 8.67 -5.32 8.34 -6 8 C-6 6 -6 6 -3.5625 3.4375 C-2.716875 2.633125 -1.87125 1.82875 -1 1 C-0.67 0.67 -0.34 0.34 0 0 Z " fill="#6A3A5A" transform="translate(167,103)"/>
<path d="M0 0 C1.25541557 3.76624671 0.37061958 5.37188934 -1 9 C-3 6 -3 6 -3 2 C-2.01 2 -1.02 2 0 2 C0 1.34 0 0.68 0 0 Z " fill="#D585BD" transform="translate(179,57)"/>
<path d="M0 0 C0.66 0 1.32 0 2 0 C2.33 2.97 2.66 5.94 3 9 C2.34 9 1.68 9 1 9 C0.87625 8.360625 0.7525 7.72125 0.625 7.0625 C0.315625 6.0415625 0.315625 6.0415625 0 5 C-0.66 4.67 -1.32 4.34 -2 4 C-1.34 2.68 -0.68 1.36 0 0 Z " fill="#F5C15D" transform="translate(120,85)"/>
</svg>
