<svg version="1.1" id="Layer_1" xmlns="http://www.w3.org/2000/svg" xmlns:xlink="http://www.w3.org/1999/xlink" x="0px" y="0px"
	 width="100%" viewBox="0 0 287 175" enable-background="new 0 0 287 175" xml:space="preserve">

<path fill="#38BDF8" opacity="1.000000" stroke="none" 
	d="
M159.001404,1.801189 
	C178.619766,4.832386 194.255692,14.935708 207.735794,29.013891 
	C212.220139,33.697205 216.853729,38.289051 221.806519,42.462982 
	C238.185104,56.265926 260.381378,55.978245 276.501343,41.875965 
	C279.974060,38.837906 283.116974,35.422783 286.737854,32.463760 
	C280.970673,54.227234 270.413483,72.870148 248.234726,80.882858 
	C214.536987,93.057129 183.420319,88.349892 156.885849,62.672691 
	C151.622437,57.579327 146.622437,52.190178 141.122681,47.368938 
	C121.836319,30.462004 98.692947,31.294659 80.423233,49.346745 
	C78.562393,51.185429 76.800262,53.124016 74.099998,55.950180 
	C74.365318,53.757660 74.340294,52.742153 74.621300,51.819889 
	C83.161705,23.789597 101.243271,6.402856 130.825500,1.341905 
	C139.020905,1.000000 147.041809,1.000000 155.703796,1.290612 
	C157.230392,1.654546 158.115906,1.727867 159.001404,1.801189 
z"/>
<path fill="#38BDF8" opacity="1.000000" stroke="none" 
	d="
M0.999999,141.250000 
	C1.981956,138.779129 3.123488,136.614014 3.921649,134.328949 
	C13.968607,105.565239 34.065414,89.518082 64.489754,87.209076 
	C90.513458,85.234039 113.658073,92.010139 132.249161,111.353806 
	C137.093033,116.393745 142.124634,121.271713 147.298126,125.973045 
	C166.222015,143.169861 189.666321,142.653900 208.055740,124.803406 
	C210.287231,122.637321 212.694199,120.652039 215.442078,118.207291 
	C210.842331,134.987839 203.287857,149.433594 189.268387,159.759644 
	C173.847214,171.118149 156.099808,173.542068 137.578171,172.547714 
	C114.878548,171.329056 96.682739,161.039261 81.251266,144.869400 
	C75.749390,139.104279 70.037697,133.347290 63.626362,128.678986 
	C45.858986,115.742012 22.265064,119.699203 6.285173,137.656189 
	C4.889856,139.224152 3.240799,140.566299 1.354800,142.006668 
	C1.000000,142.000000 1.000000,141.500000 0.999999,141.250000 
z"/>
<path fill="#FEFFFF" opacity="1.000000" stroke="none" 
	d="
M159.000931,1.600892 
	C158.115906,1.727867 157.230392,1.654546 156.172455,1.290612 
	C156.750000,1.000000 157.500000,1.000000 158.625000,1.000000 
	C159.000000,1.000000 159.000458,1.400595 159.000931,1.600892 
z"/>
</svg>