<?xml version="1.0" standalone="no"?>
<!DOCTYPE svg PUBLIC "-//W3C//DTD SVG 20010904//EN"
 "http://www.w3.org/TR/2001/REC-SVG-20010904/DTD/svg10.dtd">
<svg version="1.0" xmlns="http://www.w3.org/2000/svg"
 width="160.000000pt" height="160.000000pt" viewBox="0 0 160.000000 160.000000"
 preserveAspectRatio="xMidYMid meet">

<g transform="translate(0.000000,160.000000) scale(0.100000,-0.100000)"
fill="#007acc" stroke="none">
<path d="M0 800 l0 -800 800 0 800 0 0 800 0 800 -800 0 -800 0 0 -800z m918
-2 l3 -68 -106 0 -105 0 0 -295 0 -295 -75 0 -75 0 0 295 0 295 -105 0 -105 0
0 63 c0 35 3 67 7 70 4 4 131 6 282 5 l276 -3 3 -67z m399 60 c29 -12 113 -86
113 -100 0 -4 -25 -24 -55 -44 l-56 -37 -30 29 c-54 52 -139 33 -139 -31 0
-32 34 -58 141 -109 116 -55 162 -100 178 -175 21 -99 -13 -179 -97 -228 -43
-26 -56 -28 -147 -28 -89 0 -105 3 -151 27 -54 29 -116 93 -112 116 2 8 28 28
60 45 l56 32 22 -28 c30 -38 71 -57 123 -57 51 0 97 29 97 61 0 40 -24 62
-115 104 -151 70 -205 132 -205 234 0 87 37 146 115 182 47 22 159 26 202 7z"/>
</g>
</svg>
